<?xml version="1.0" encoding="utf-8"?>
<!-- Generator: Adobe Illustrator 15.0.0, SVG Export Plug-In . SVG Version: 6.00 Build 0)  -->
<!DOCTYPE svg PUBLIC "-//W3C//DTD SVG 1.1//EN" "http://www.w3.org/Graphics/SVG/1.1/DTD/svg11.dtd">
<svg version="1.1" id="Layer_1" xmlns="http://www.w3.org/2000/svg" xmlns:xlink="http://www.w3.org/1999/xlink" x="0px" y="0px"
	 width="405.354px" height="280.63px" viewBox="0 0 405.354 280.63" enable-background="new 0 0 405.354 280.63"
	 xml:space="preserve">
<g>
	<g>
		<g>
			
				<path fill="#F27024" stroke="#F27024" stroke-width="4" stroke-linecap="round" stroke-linejoin="round" stroke-miterlimit="10" d="
				M5.055,18.869c0-0.895,0.311-1.653,0.93-2.273c0.62-0.62,1.377-0.93,2.273-0.93c0.894,0,1.652,0.31,2.272,0.93
				s0.931,1.378,0.931,2.273v59.615c0,0.896-0.311,1.653-0.931,2.273c-0.62,0.62-1.379,0.93-2.272,0.93
				c-0.896,0-1.653-0.31-2.273-0.93c-0.619-0.62-0.93-1.377-0.93-2.273V18.869z"/>
			
				<path fill="#F27024" stroke="#F27024" stroke-width="4" stroke-linecap="round" stroke-linejoin="round" stroke-miterlimit="10" d="
				M21.379,34.677c0-0.895,0.311-1.654,0.929-2.274c0.621-0.62,1.377-0.93,2.273-0.93c0.895,0,1.653,0.31,2.273,0.93
				c0.621,0.62,0.931,1.379,0.931,2.274v1.342c1.584-1.377,3.409-2.479,5.476-3.306c2.066-0.827,4.271-1.24,6.612-1.24
				c2.548,0,4.959,0.482,7.232,1.446c2.273,0.966,4.253,2.291,5.941,3.979c1.687,1.688,3.013,3.667,3.978,5.941
				c0.964,2.273,1.447,4.685,1.447,7.232v28.413c0,0.896-0.311,1.653-0.931,2.273c-0.62,0.62-1.379,0.93-2.273,0.93
				c-0.896,0-1.652-0.31-2.273-0.93c-0.619-0.62-0.929-1.377-0.929-2.273V50.071c0-1.652-0.328-3.219-0.982-4.701
				c-0.655-1.48-1.533-2.771-2.634-3.875c-1.104-1.101-2.395-1.962-3.875-2.583c-1.481-0.62-3.048-0.93-4.701-0.93
				c-1.652,0-3.203,0.31-4.649,0.93c-1.445,0.62-2.722,1.446-3.822,2.479c-1.103,1.033-1.964,2.257-2.583,3.668
				c-0.62,1.413-0.966,2.91-1.033,4.494v28.93c0,0.896-0.31,1.653-0.931,2.273c-0.62,0.62-1.379,0.93-2.273,0.93
				c-0.896,0-1.652-0.31-2.273-0.93c-0.618-0.62-0.929-1.377-0.929-2.273V34.677z"/>
			
				<path fill="#F27024" stroke="#F27024" stroke-width="4" stroke-linecap="round" stroke-linejoin="round" stroke-miterlimit="10" d="
				M64.877,44.595c0-2.41,0.481-4.443,1.447-6.096c0.963-1.653,2.238-2.996,3.821-4.029c1.584-1.033,3.375-1.773,5.373-2.221
				c1.998-0.448,3.994-0.672,5.993-0.672c1.653,0,3.409,0.19,5.269,0.568c1.861,0.379,3.581,0.948,5.167,1.705
				c1.584,0.759,2.894,1.689,3.927,2.79c1.032,1.103,1.548,2.412,1.548,3.926c0,0.76-0.258,1.499-0.774,2.222
				c-0.516,0.724-1.361,1.085-2.531,1.085c-1.309,0-2.309-0.757-2.996-2.273c-0.619-1.308-1.827-2.29-3.615-2.944
				c-1.793-0.654-3.789-0.982-5.993-0.982c-1.173,0-2.36,0.088-3.565,0.258c-1.204,0.173-2.29,0.517-3.253,1.034
				c-0.966,0.517-1.775,1.223-2.429,2.118c-0.656,0.896-0.981,2.066-0.981,3.513c0,1.033,0.325,1.929,0.981,2.686
				c0.653,0.759,1.48,1.395,2.479,1.912c0.998,0.517,2.101,0.914,3.306,1.188c1.205,0.276,2.358,0.517,3.462,0.723
				c2.547,0.414,4.94,1.017,7.181,1.808c2.237,0.793,4.2,1.809,5.889,3.049c1.688,1.239,3.031,2.722,4.031,4.443
				c0.996,1.722,1.497,3.719,1.497,5.992c0,2.274-0.482,4.357-1.446,6.251c-0.966,1.895-2.291,3.513-3.978,4.856
				c-1.689,1.342-3.668,2.375-5.941,3.099s-4.686,1.085-7.232,1.085c-4.341,0-8.146-0.997-11.417-2.996
				c-3.272-1.997-5.459-4.753-6.561-8.266c-0.07-0.207-0.104-0.517-0.104-0.93c0-0.895,0.293-1.687,0.879-2.377
				c0.585-0.688,1.359-1.033,2.325-1.033c0.756,0,1.428,0.225,2.015,0.671c0.584,0.449,1.05,1.052,1.396,1.809
				c0.895,2.205,2.427,3.875,4.597,5.011c2.171,1.137,4.46,1.705,6.871,1.705c3.374,0,6.251-0.775,8.627-2.325
				s3.565-3.736,3.565-6.562c0-2.272-1.172-4.2-3.514-5.785c-2.343-1.584-5.235-2.617-8.679-3.1
				c-4.96-0.688-8.974-2.049-12.037-4.081C66.41,51.398,64.877,48.453,64.877,44.595z"/>
			
				<path fill="#F27024" stroke="#F27024" stroke-width="4" stroke-linecap="round" stroke-linejoin="round" stroke-miterlimit="10" d="
				M110.441,18.869c0-0.895,0.311-1.653,0.93-2.273c0.621-0.62,1.377-0.93,2.273-0.93c0.895,0,1.653,0.31,2.273,0.93
				c0.619,0.62,0.93,1.378,0.93,2.273v12.604h6.891c0.903,0,1.668,0.31,2.296,0.93c0.626,0.62,0.938,1.379,0.938,2.274
				s-0.312,1.653-0.938,2.272c-0.628,0.62-1.393,0.93-2.296,0.93h-6.891v40.605c0,0.896-0.305,1.653-0.916,2.273
				c-0.609,0.62-1.354,0.93-2.235,0.93s-1.628-0.31-2.238-0.93c-0.609-0.62-0.913-1.377-0.913-2.273V37.879h-6.891
				c-0.903,0-1.669-0.31-2.296-0.93c-0.625-0.619-0.938-1.377-0.938-2.272s0.309-1.654,0.93-2.274s1.377-0.93,2.273-0.93h6.818
				V18.869z"/>
			
				<path fill="#F27024" stroke="#F27024" stroke-width="4" stroke-linecap="round" stroke-linejoin="round" stroke-miterlimit="10" d="
				M169.128,72.285c-2.273,2.549-5.012,4.736-8.214,6.561c-3.202,1.827-6.664,2.739-10.384,2.739c-3.445,0-6.665-0.62-9.661-1.86
				c-2.997-1.24-5.631-2.961-7.903-5.166c-2.273-2.204-4.065-4.821-5.373-7.853c-1.309-3.03-1.963-6.337-1.963-9.918
				c0-3.444,0.637-6.698,1.911-9.764c1.273-3.064,3.03-5.734,5.27-8.007c2.237-2.273,4.891-4.063,7.956-5.373
				c3.063-1.308,6.388-1.963,9.97-1.963c3.307,0,6.458,0.672,9.454,2.015c2.996,1.343,5.631,3.151,7.903,5.424
				c2.273,2.273,4.082,4.925,5.425,7.956c1.343,3.032,2.015,6.269,2.015,9.712v21.8c0,0.896-0.31,1.653-0.93,2.273
				s-1.379,0.93-2.272,0.93c-0.896,0-1.653-0.31-2.272-0.93c-0.621-0.62-0.931-1.377-0.931-2.273V72.285z M169.128,56.787
				c0-2.547-0.482-4.959-1.447-7.233c-0.965-2.273-2.29-4.252-3.977-5.94c-1.69-1.687-3.668-3.013-5.941-3.979
				c-2.273-0.963-4.686-1.446-7.232-1.446c-2.549,0-4.943,0.483-7.181,1.446c-2.239,0.966-4.202,2.292-5.889,3.979
				c-1.689,1.688-3.015,3.667-3.979,5.94c-0.966,2.273-1.447,4.686-1.447,7.233c0,2.549,0.481,4.943,1.447,7.181
				c0.964,2.239,2.289,4.202,3.979,5.889c1.687,1.688,3.649,3.014,5.889,3.978c2.237,0.965,4.632,1.447,7.181,1.447
				c2.479,0,4.821-0.465,7.025-1.396c2.203-0.93,4.149-2.222,5.838-3.874c1.688-1.654,3.029-3.599,4.029-5.838
				C168.421,61.937,168.99,59.473,169.128,56.787z"/>
			
				<path fill="#F27024" stroke="#F27024" stroke-width="4" stroke-linecap="round" stroke-linejoin="round" stroke-miterlimit="10" d="
				M182.664,18.869c0-0.895,0.309-1.653,0.93-2.273s1.377-0.93,2.273-0.93c0.894,0,1.653,0.31,2.272,0.93
				c0.62,0.62,0.93,1.378,0.93,2.273v59.615c0,0.896-0.31,1.653-0.93,2.273c-0.619,0.62-1.379,0.93-2.272,0.93
				c-0.896,0-1.652-0.31-2.273-0.93c-0.621-0.62-0.93-1.377-0.93-2.273V18.869z"/>
			
				<path fill="#F27024" stroke="#F27024" stroke-width="4" stroke-linecap="round" stroke-linejoin="round" stroke-miterlimit="10" d="
				M237.94,72.285c-2.272,2.549-5.011,4.736-8.215,6.561c-3.202,1.827-6.664,2.739-10.384,2.739c-3.444,0-6.663-0.62-9.66-1.86
				c-2.996-1.24-5.63-2.961-7.904-5.166c-2.273-2.204-4.063-4.821-5.372-7.853c-1.31-3.03-1.963-6.337-1.963-9.918
				c0-3.444,0.636-6.698,1.912-9.764c1.273-3.064,3.029-5.734,5.269-8.007c2.237-2.273,4.89-4.063,7.957-5.373
				c3.062-1.308,6.387-1.963,9.969-1.963c3.308,0,6.457,0.672,9.454,2.015c2.996,1.343,5.632,3.151,7.904,5.424
				c2.273,2.273,4.081,4.925,5.423,7.956c1.344,3.032,2.016,6.269,2.016,9.712v21.8c0,0.896-0.309,1.653-0.93,2.273
				c-0.619,0.62-1.378,0.93-2.273,0.93s-1.653-0.31-2.272-0.93c-0.62-0.62-0.93-1.377-0.93-2.273V72.285z M237.94,56.787
				c0-2.547-0.483-4.959-1.447-7.233c-0.966-2.273-2.29-4.252-3.978-5.94c-1.688-1.687-3.668-3.013-5.939-3.979
				c-2.274-0.963-4.686-1.446-7.234-1.446c-2.548,0-4.942,0.483-7.18,1.446c-2.24,0.966-4.202,2.292-5.89,3.979
				c-1.689,1.688-3.015,3.667-3.978,5.94c-0.965,2.273-1.447,4.686-1.447,7.233c0,2.549,0.482,4.943,1.447,7.181
				c0.963,2.239,2.288,4.202,3.978,5.889c1.688,1.688,3.649,3.014,5.89,3.978c2.237,0.965,4.632,1.447,7.18,1.447
				c2.48,0,4.821-0.465,7.027-1.396c2.203-0.93,4.148-2.222,5.837-3.874c1.687-1.654,3.03-3.599,4.029-5.838
				C237.234,61.937,237.8,59.473,237.94,56.787z"/>
			
				<path fill="#F27024" stroke="#F27024" stroke-width="4" stroke-linecap="round" stroke-linejoin="round" stroke-miterlimit="10" d="
				M274,31.783c2.754,0,5.233,0.414,7.439,1.24c2.203,0.827,4.098,1.774,5.682,2.842c1.584,1.069,2.808,2.136,3.668,3.203
				c0.861,1.068,1.293,1.877,1.293,2.428c0,0.759-0.312,1.413-0.932,1.963c-0.619,0.552-1.309,0.826-2.065,0.826
				c-0.896,0-1.653-0.31-2.273-0.93c-1.723-1.514-3.686-2.737-5.889-3.668c-2.206-0.929-4.582-1.395-7.13-1.395
				c-2.549,0-4.942,0.483-7.181,1.446c-2.238,0.966-4.202,2.291-5.889,3.979c-1.688,1.688-3.015,3.667-3.978,5.94
				c-0.966,2.273-1.447,4.685-1.447,7.232c0,2.549,0.481,4.943,1.447,7.181c0.963,2.239,2.289,4.202,3.978,5.89
				c1.687,1.688,3.65,3.014,5.889,3.978c2.238,0.965,4.632,1.446,7.181,1.446c2.548,0,4.924-0.465,7.13-1.395
				c2.203-0.93,4.166-2.222,5.889-3.875c0.62-0.619,1.377-0.93,2.273-0.93c0.827,0,1.566,0.293,2.222,0.879
				c0.652,0.585,0.98,1.327,0.98,2.221c0,0.552-0.396,1.361-1.188,2.429c-0.793,1.068-1.98,2.118-3.564,3.151
				c-1.586,1.034-3.531,1.929-5.838,2.686c-2.309,0.759-4.943,1.137-7.904,1.137c-3.444,0-6.664-0.62-9.66-1.859
				c-2.996-1.24-5.632-2.961-7.904-5.167c-2.272-2.203-4.065-4.82-5.372-7.852c-1.31-3.03-1.964-6.337-1.964-9.919
				c0-3.443,0.637-6.665,1.911-9.66c1.275-2.996,3.031-5.613,5.271-7.853c2.238-2.237,4.89-4.029,7.955-5.373
				C267.093,32.661,270.417,31.922,274,31.783z"/>
			
				<path fill="#F27024" stroke="#F27024" stroke-width="4" stroke-linecap="round" stroke-linejoin="round" stroke-miterlimit="10" d="
				M296.214,19.901c0-1.171,0.414-2.169,1.24-2.996c0.827-0.827,1.823-1.24,2.996-1.24c1.17,0,2.17,0.414,2.996,1.24
				c0.828,0.827,1.239,1.825,1.239,2.996c0,1.172-0.411,2.169-1.239,2.997c-0.826,0.826-1.826,1.239-2.996,1.239
				c-1.173,0-2.169-0.413-2.996-1.239C296.628,22.071,296.214,21.074,296.214,19.901z M297.248,34.677
				c0-0.895,0.311-1.654,0.931-2.274c0.619-0.62,1.377-0.93,2.272-0.93c0.895,0,1.653,0.31,2.273,0.93
				c0.619,0.62,0.93,1.379,0.93,2.274v43.807c0,0.896-0.311,1.653-0.93,2.273c-0.62,0.62-1.379,0.93-2.273,0.93
				c-0.896,0-1.653-0.31-2.272-0.93c-0.62-0.62-0.931-1.377-0.931-2.273V34.677z"/>
			
				<path fill="#F27024" stroke="#F27024" stroke-width="4" stroke-linecap="round" stroke-linejoin="round" stroke-miterlimit="10" d="
				M333.514,31.68c3.307,0,6.457,0.672,9.453,2.015c2.997,1.343,5.632,3.151,7.904,5.424c2.273,2.273,4.081,4.925,5.424,7.956
				c1.344,3.032,2.015,6.269,2.015,9.712c0,3.375-0.654,6.561-1.963,9.557c-1.309,2.996-3.083,5.63-5.32,7.904
				c-2.24,2.272-4.874,4.064-7.904,5.372c-3.031,1.31-6.302,1.963-9.815,1.963c-3.445,0-6.664-0.62-9.661-1.86
				c-2.996-1.24-5.63-2.961-7.903-5.166c-2.273-2.204-4.064-4.821-5.373-7.853c-1.309-3.03-1.963-6.337-1.963-9.918
				c0-3.444,0.636-6.665,1.912-9.661c1.273-2.996,3.03-5.613,5.269-7.853c2.237-2.237,4.891-4.029,7.957-5.373
				C326.608,32.558,329.931,31.819,333.514,31.68z M333.307,38.189c-2.549,0-4.942,0.483-7.181,1.446
				c-2.239,0.966-4.202,2.292-5.889,3.979c-1.689,1.688-3.015,3.667-3.979,5.94c-0.965,2.273-1.446,4.686-1.446,7.233
				c0,2.549,0.481,4.943,1.446,7.181c0.964,2.239,2.289,4.202,3.979,5.889c1.687,1.688,3.649,3.014,5.889,3.978
				c2.238,0.965,4.632,1.447,7.181,1.447c2.548,0,4.96-0.482,7.233-1.447c2.272-0.963,4.251-2.289,5.939-3.978
				c1.688-1.687,3.012-3.65,3.978-5.889c0.965-2.238,1.447-4.632,1.447-7.181c0-2.547-0.482-4.959-1.447-7.233
				c-0.966-2.273-2.29-4.252-3.978-5.94c-1.688-1.687-3.667-3.013-5.939-3.979C338.267,38.672,335.855,38.189,333.307,38.189z
				 M339.093,6.78c0.551-1.033,1.447-1.55,2.687-1.55c0.963,0,1.738,0.345,2.324,1.033c0.585,0.69,0.879,1.447,0.879,2.273
				c0,0.552-0.104,1.034-0.311,1.446l-8.575,14.775c-0.275,0.553-0.655,0.965-1.137,1.24c-0.482,0.275-1,0.414-1.55,0.414
				c-0.966,0-1.74-0.378-2.325-1.137c-0.585-0.757-0.879-1.514-0.879-2.272c0-0.481,0.105-0.931,0.312-1.344L339.093,6.78z"/>
			
				<path fill="#F27024" stroke="#F27024" stroke-width="4" stroke-linecap="round" stroke-linejoin="round" stroke-miterlimit="10" d="
				M363.065,34.677c0-0.895,0.309-1.654,0.93-2.274c0.619-0.62,1.377-0.93,2.272-0.93c0.895,0,1.654,0.31,2.272,0.93
				c0.62,0.62,0.931,1.379,0.931,2.274v1.342c1.583-1.377,3.409-2.479,5.477-3.306c2.066-0.827,4.27-1.24,6.611-1.24
				c2.548,0,4.96,0.482,7.233,1.446c2.272,0.966,4.252,2.291,5.94,3.979c1.687,1.688,3.013,3.667,3.978,5.941
				c0.964,2.273,1.446,4.685,1.446,7.232v28.413c0,0.896-0.31,1.653-0.93,2.273c-0.62,0.62-1.379,0.93-2.272,0.93
				c-0.896,0-1.654-0.31-2.273-0.93c-0.62-0.62-0.931-1.377-0.931-2.273V50.071c0-1.652-0.326-3.219-0.98-4.701
				c-0.655-1.48-1.534-2.771-2.635-3.875c-1.103-1.101-2.395-1.962-3.875-2.583c-1.482-0.62-3.049-0.93-4.701-0.93
				c-1.653,0-3.202,0.31-4.648,0.93c-1.447,0.62-2.722,1.446-3.823,2.479c-1.104,1.033-1.964,2.257-2.583,3.668
				c-0.62,1.413-0.965,2.91-1.033,4.494v28.93c0,0.896-0.311,1.653-0.931,2.273c-0.618,0.62-1.378,0.93-2.272,0.93
				c-0.896,0-1.653-0.31-2.272-0.93c-0.621-0.62-0.93-1.377-0.93-2.273V34.677z"/>
		</g>
	</g>
	<g>
		<g>
			
				<path fill="#F27024" stroke="#F27024" stroke-width="4" stroke-linecap="round" stroke-linejoin="round" stroke-miterlimit="10" d="
				M98.899,197.844c0,6.443-1.226,12.494-3.672,18.165c-2.449,5.667-5.798,10.595-10.049,14.782
				c-4.251,4.186-9.212,7.504-14.879,9.952c-5.671,2.446-11.726,3.673-18.165,3.673c-6.184,0-12.078-1.193-17.682-3.576
				c-5.604-2.385-10.468-5.443-14.59-9.179c-0.646-0.646-0.936-1.386-0.869-2.222c0.062-0.84,0.416-1.58,1.062-2.223
				c0.643-0.646,1.383-0.937,2.223-0.87c0.836,0.063,1.575,0.417,2.221,1.063c3.736,3.348,7.924,5.99,12.562,7.923
				c4.637,1.933,9.661,2.899,15.072,2.899c5.281,0,10.305-1,15.072-2.996c4.766-1.999,8.986-4.672,12.658-8.02
				c3.672-3.352,6.633-7.312,8.889-11.885c2.252-4.574,3.575-9.498,3.962-14.783v-18.164c-4.124,7.086-9.729,12.916-16.812,17.488
				c-7.087,4.574-15.01,6.859-23.769,6.859c-6.443,0-12.531-1.223-18.262-3.671c-5.733-2.445-10.725-5.798-14.976-10.049
				c-4.253-4.251-7.603-9.208-10.049-14.88c-2.449-5.666-3.672-11.721-3.672-18.164c0-6.44,1.256-12.527,3.769-18.262
				c2.512-5.73,5.894-10.724,10.146-14.976c4.25-4.252,9.209-7.601,14.88-10.049c5.667-2.445,11.721-3.671,18.164-3.671
				c8.759,0,16.715,2.158,23.865,6.474c7.15,4.317,12.721,10.018,16.716,17.101v-20.484c0-2.059,1.03-3.091,3.091-3.091
				c2.059,0,3.093,1.032,3.093,3.091V197.844z M92.715,158.423c-0.261-5.411-1.482-10.466-3.672-15.17
				c-2.192-4.701-5.121-8.855-8.793-12.464c-3.672-3.605-7.923-6.441-12.754-8.502c-4.83-2.06-9.951-3.092-15.362-3.092
				c-5.54,0-10.792,1.096-15.75,3.285c-4.959,2.192-9.275,5.121-12.946,8.792c-3.673,3.672-6.604,7.99-8.794,12.947
				c-2.19,4.961-3.284,10.213-3.284,15.75c0,5.541,1.094,10.791,3.284,15.749c2.189,4.961,5.121,9.276,8.794,12.947
				c3.671,3.671,7.987,6.57,12.946,8.696c4.958,2.125,10.21,3.188,15.75,3.188c5.536,0,10.789-1.062,15.749-3.188
				c4.957-2.126,9.275-5.025,12.947-8.696c3.671-3.671,6.57-7.986,8.695-12.947c2.126-4.958,3.189-10.208,3.189-15.749V158.423z"/>
			
				<path fill="#F27024" stroke="#F27024" stroke-width="4" stroke-linecap="round" stroke-linejoin="round" stroke-miterlimit="10" d="
				M112.619,116.102c0-0.643,0.256-1.318,0.772-2.029c0.514-0.706,1.287-1.062,2.32-1.062c0.771,0,1.478,0.289,2.124,0.869
				c0.644,0.58,0.967,1.323,0.967,2.222v21.064c4.895-7.986,10.435-14.01,16.619-18.068c6.184-4.058,13.719-6.086,22.608-6.086
				c1.03,0,1.803,0.356,2.319,1.062c0.513,0.71,0.773,1.386,0.773,2.029c0,0.646-0.261,1.323-0.773,2.03
				c-0.517,0.709-1.289,1.062-2.319,1.062c-5.41,0-10.468,1.063-15.169,3.189c-4.704,2.125-8.792,4.993-12.271,8.6
				c-3.479,3.607-6.28,7.762-8.405,12.464c-2.126,4.703-3.256,9.631-3.382,14.782v45.604c0,0.903-0.323,1.613-0.967,2.127
				c-0.646,0.516-1.353,0.771-2.124,0.771c-2.063,0-3.093-1.029-3.093-3.092V116.102z"/>
			
				<path fill="#F27024" stroke="#F27024" stroke-width="4" stroke-linecap="round" stroke-linejoin="round" stroke-miterlimit="10" d="
				M160.929,159.969c0-6.44,1.223-12.527,3.672-18.262c2.445-5.73,5.797-10.724,10.048-14.976c4.252-4.252,9.209-7.601,14.88-10.049
				c5.668-2.445,11.722-3.671,18.165-3.671c6.31,0,12.334,1.226,18.068,3.671c5.73,2.449,10.725,5.768,14.976,9.953
				c4.252,4.188,7.633,9.115,10.146,14.783c2.512,5.67,3.769,11.725,3.769,18.165v44.059c0,2.062-1.033,3.092-3.092,3.092
				c-2.062,0-3.093-1.029-3.093-3.092v-21.256c-4.124,7.086-9.759,12.916-16.908,17.488c-7.149,4.574-15.106,6.859-23.865,6.859
				c-6.443,0-12.497-1.223-18.165-3.671c-5.671-2.445-10.628-5.798-14.88-10.049c-4.251-4.251-7.603-9.208-10.048-14.88
				C162.152,172.467,160.929,166.412,160.929,159.969z M167.113,159.969c0,5.541,1.062,10.791,3.188,15.749
				c2.127,4.961,5.025,9.276,8.696,12.947c3.672,3.671,7.986,6.57,12.947,8.696c4.958,2.125,10.209,3.188,15.749,3.188
				c5.538,0,10.788-1.062,15.749-3.188c4.959-2.126,9.275-5.025,12.947-8.696c3.671-3.671,6.601-7.986,8.793-12.947
				c2.188-4.958,3.284-10.208,3.284-15.749c0-5.537-1.097-10.789-3.284-15.75c-2.192-4.957-5.122-9.275-8.793-12.947
				c-3.672-3.672-7.988-6.601-12.947-8.792c-4.961-2.189-10.211-3.285-15.749-3.285c-5.54,0-10.791,1.096-15.749,3.285
				c-4.961,2.192-9.275,5.121-12.947,8.792c-3.671,3.672-6.569,7.99-8.696,12.947C168.175,149.18,167.113,154.432,167.113,159.969z"
				/>
			
				<path fill="#F27024" stroke="#F27024" stroke-width="4" stroke-linecap="round" stroke-linejoin="round" stroke-miterlimit="10" d="
				M260.257,119.194c-2.062,0-3.093-1.029-3.093-3.092c0-2.059,1.03-3.091,3.093-3.091h17.006V86.73c0-2.06,1.029-3.092,3.091-3.092
				c2.06,0,3.092,1.033,3.092,3.092v26.281h17.006c2.059,0,3.092,1.032,3.092,3.091c0,2.063-1.033,3.092-3.092,3.092h-17.006v84.446
				c0,2.062-1.032,3.092-3.092,3.092c-2.062,0-3.091-1.029-3.091-3.092v-84.446H260.257z"/>
			
				<path fill="#F27024" stroke="#F27024" stroke-width="4" stroke-linecap="round" stroke-linejoin="round" stroke-miterlimit="10" d="
				M308.761,94.459c0-1.416,0.483-2.639,1.448-3.671c0.968-1.03,2.156-1.546,3.575-1.546c1.417,0,2.64,0.516,3.673,1.546
				c1.029,1.032,1.545,2.255,1.545,3.671c0,1.419-0.516,2.609-1.545,3.575c-1.033,0.967-2.256,1.45-3.673,1.45
				c-1.419,0-2.607-0.483-3.575-1.45C309.245,97.068,308.761,95.878,308.761,94.459z M311.273,116.296
				c0-2.059,1.03-3.092,3.093-3.092c2.059,0,3.092,1.033,3.092,3.092v87.538c0,2.062-1.033,3.093-3.092,3.093
				c-2.062,0-3.093-1.03-3.093-3.093V116.296z"/>
			
				<path fill="#F27024" stroke="#F27024" stroke-width="4" stroke-linecap="round" stroke-linejoin="round" stroke-miterlimit="10" d="
				M329.634,135.62c0-4.251,0.869-7.826,2.608-10.725c1.739-2.898,4.025-5.217,6.86-6.957c2.832-1.739,6.02-2.995,9.566-3.769
				c3.541-0.773,7.179-1.159,10.917-1.159c3.092,0,6.184,0.289,9.275,0.869c3.093,0.58,5.958,1.449,8.6,2.609
				c2.64,1.159,4.928,2.675,6.86,4.541c1.933,1.869,3.218,4.092,3.864,6.667c0.257,0.903,0.097,1.676-0.482,2.319
				c-0.58,0.646-1.517,0.967-2.802,0.967c-1.032,0-1.934-0.774-2.705-2.319c-1.807-3.219-4.768-5.701-8.89-7.44
				c-4.125-1.739-8.696-2.609-13.721-2.609c-2.578,0-5.251,0.226-8.019,0.676c-2.771,0.453-5.314,1.323-7.634,2.608
				c-2.319,1.29-4.222,3.029-5.7,5.218c-1.483,2.192-2.223,5.024-2.223,8.502c0,2.835,0.739,5.188,2.223,7.053
				c1.479,1.87,3.314,3.415,5.507,4.639c2.189,1.226,4.638,2.192,7.343,2.898c2.705,0.71,5.281,1.256,7.729,1.642
				c4.766,0.903,9.242,2.096,13.431,3.576c4.186,1.482,7.857,3.318,11.015,5.508c3.156,2.191,5.634,4.801,7.44,7.826
				c1.802,3.027,2.705,6.539,2.705,10.531c0,4.124-0.903,7.859-2.705,11.209c-1.807,3.35-4.221,6.249-7.246,8.694
				c-3.029,2.448-6.604,4.318-10.726,5.604c-4.124,1.289-8.503,1.932-13.141,1.932c-7.859,0-14.782-1.705-20.773-5.12
				c-5.99-3.412-9.889-8.214-11.691-14.397c-0.26-1.285-0.163-2.414,0.29-3.381c0.45-0.967,1.256-1.449,2.415-1.449
				c0.644,0,1.287,0.129,1.933,0.387c0.644,0.26,1.224,1.033,1.74,2.318c0.898,2.319,2.284,4.445,4.153,6.377
				c1.866,1.932,3.992,3.575,6.378,4.928c2.383,1.353,4.928,2.386,7.633,3.092c2.705,0.709,5.345,1.062,7.923,1.062
				c3.865,0,7.47-0.482,10.821-1.449c3.349-0.966,6.28-2.349,8.792-4.154c2.514-1.803,4.51-4.024,5.991-6.667
				c1.479-2.638,2.223-5.634,2.223-8.985c0-2.445-0.743-4.831-2.223-7.15c-1.481-2.319-3.478-4.378-5.991-6.184
				c-2.512-1.803-5.443-3.348-8.792-4.637c-3.352-1.287-6.893-2.253-10.628-2.899c-4.252-0.644-8.212-1.577-11.885-2.802
				c-3.671-1.223-6.859-2.736-9.564-4.541c-2.707-1.803-4.831-3.992-6.377-6.57C330.407,141.934,329.634,138.971,329.634,135.62z"/>
		</g>
	</g>
	<g>
		<g>
			
				<path fill="#F27024" stroke="#F27024" stroke-width="4" stroke-linecap="round" stroke-linejoin="round" stroke-miterlimit="10" d="
				M129.757,259.226h-23.684c-0.146,0.603-0.219,1.174-0.219,1.714c0,2.493,0.718,4.436,2.15,5.828
				c1.434,1.393,3.229,2.088,5.391,2.088c3.013,0,5.567-1.434,7.668-4.301l5.889,2.524c-1.184,1.974-3.022,3.589-5.516,4.845
				c-2.493,1.258-5.152,1.887-7.978,1.887c-4.342,0-7.719-1.258-10.128-3.771c-2.411-2.514-3.615-5.734-3.615-9.66
				c0-3.137,0.794-6.109,2.385-8.913c1.588-2.805,3.713-5.095,6.372-6.872c2.66-1.775,5.567-2.664,8.726-2.664
				c3.822,0,6.943,1.252,9.364,3.756c2.42,2.504,3.631,5.77,3.631,9.801C130.194,256.795,130.048,258.042,129.757,259.226z
				 M124.428,254.986c0.063-0.643,0.095-1.162,0.095-1.557c0-1.662-0.661-3.174-1.98-4.535c-1.318-1.359-3.069-2.041-5.25-2.041
				c-2.225,0-4.233,0.732-6.03,2.197c-1.798,1.465-3.152,3.443-4.067,5.936H124.428z"/>
			
				<path fill="#F27024" stroke="#F27024" stroke-width="4" stroke-linecap="round" stroke-linejoin="round" stroke-miterlimit="10" d="
				M138.047,242.771h9.534l-0.774,3.521c3.812-2.66,7.13-3.989,9.953-3.989c2.253,0,3.986,0.728,5.196,2.183
				c1.211,1.455,1.817,3.014,1.817,4.676c0,1.394-0.28,3.284-0.841,5.672l-3.052,13.023h4.456l-1.215,5.08h-10.054l4.304-18.48
				c0.454-1.973,0.682-3.209,0.682-3.708c0-0.913-0.305-1.667-0.915-2.26c-0.61-0.592-1.358-0.888-2.241-0.888
				c-2.337,0-5.431,1.33-9.281,3.988l-3.663,16.268h4.52l-1.184,5.08h-13.725l1.185-5.08h3.584l4.487-20.006h-3.958L138.047,242.771
				z"/>
			
				<path fill="#F27024" stroke="#F27024" stroke-width="4" stroke-linecap="round" stroke-linejoin="round" stroke-miterlimit="10" d="
				M216.143,259.226h-23.685c-0.145,0.603-0.218,1.174-0.218,1.714c0,2.493,0.717,4.436,2.151,5.828
				c1.432,1.393,3.229,2.088,5.39,2.088c3.013,0,5.568-1.434,7.666-4.301l5.891,2.524c-1.184,1.974-3.022,3.589-5.516,4.845
				c-2.493,1.258-5.153,1.887-7.979,1.887c-4.343,0-7.719-1.258-10.128-3.771c-2.41-2.514-3.615-5.734-3.615-9.66
				c0-3.137,0.795-6.109,2.384-8.913c1.59-2.805,3.714-5.095,6.374-6.872c2.658-1.775,5.568-2.664,8.726-2.664
				c3.822,0,6.944,1.252,9.365,3.756c2.42,2.504,3.63,5.77,3.63,9.801C216.58,256.795,216.433,258.042,216.143,259.226z
				 M210.814,254.986c0.062-0.643,0.094-1.162,0.094-1.557c0-1.662-0.659-3.174-1.979-4.535c-1.32-1.359-3.069-2.041-5.252-2.041
				c-2.223,0-4.232,0.732-6.03,2.197c-1.796,1.465-3.152,3.443-4.066,5.936H210.814z"/>
			
				<path fill="#F27024" stroke="#F27024" stroke-width="4" stroke-linecap="round" stroke-linejoin="round" stroke-miterlimit="10" d="
				M222.937,267.857l7.978-33.189h-4.05l1.184-5.079h9.695l-9.166,38.269h4.113l-1.215,5.08h-13.184l1.187-5.08H222.937z"/>
			
				<path fill="#F27024" stroke="#F27024" stroke-width="4" stroke-linecap="round" stroke-linejoin="round" stroke-miterlimit="10" d="
				M256.75,267.857l7.978-33.189h-4.394l1.184-5.079h10.293c4.463,0,7.883,0.167,10.26,0.499s4.732,1.252,7.067,2.758
				c2.335,1.507,4.175,3.553,5.519,6.139c1.343,2.588,2.014,5.407,2.014,8.461c0,4.28-0.873,8.196-2.617,11.749
				c-1.745,3.553-3.906,6.358-6.482,8.414c-2.576,2.058-5.584,3.46-9.021,4.208c-3.439,0.746-8.607,1.121-15.505,1.121h-11.156
				l1.185-5.08H256.75z M263.064,267.857h2.678c5.646,0,10.026-0.545,13.143-1.636c3.113-1.091,5.755-3.521,7.925-7.292
				c2.169-3.771,3.255-7.702,3.255-11.795c0-2.909-0.735-5.412-2.205-7.512c-1.469-2.098-3.283-3.447-5.441-4.051
				c-2.159-0.603-5.18-0.904-9.064-0.904h-2.312L263.064,267.857z"/>
			
				<path fill="#F27024" stroke="#F27024" stroke-width="4" stroke-linecap="round" stroke-linejoin="round" stroke-miterlimit="10" d="
				M301.375,267.857l7.978-33.189h-4.237l1.184-5.079h31.122l-3.232,13.058h-5.171l1.994-7.979h-15.346l-3.171,13.245h13.062
				l-1.184,5.079H311.28l-3.558,14.865h4.644l-1.185,5.08h-14.884l1.184-5.08H301.375z"/>
			
				<path fill="#F27024" stroke="#F27024" stroke-width="4" stroke-linecap="round" stroke-linejoin="round" stroke-miterlimit="10" d="
				M357.22,230.119l-1.152,5.142c-1.787,2.243-2.972,4.612-3.553,7.105c2.971-0.396,5.453-1.298,7.448-2.712l5.452-0.467
				l0.468,5.766l-5.359,0.561c-2.016-0.789-4.259-1.184-6.731-1.184c-0.229,0-0.51,0.01-0.841,0.03
				c1.412,2.825,2.95,4.841,4.611,6.046l2.151,4.955l-5.236,2.244l-2.243-4.986c0.062-0.541,0.093-1.029,0.093-1.465
				c0-2.202-0.436-4.27-1.309-6.201c-2.036,1.807-3.47,3.957-4.301,6.451l-4.145,3.582l-3.802-4.27l4.02-3.582
				c2.016-0.375,4.271-1.548,6.763-3.522c-2.389-1.309-4.841-2.035-7.354-2.181l-4.611-2.774l2.866-5.017l4.737,2.742
				c1.225,2.14,3.095,4.01,5.608,5.609c0.208-0.914,0.312-2.088,0.312-3.521c0-1.412-0.177-2.889-0.53-4.426l1.122-5.142
				L357.22,230.119z"/>
		</g>
	</g>
</g>
</svg>
