<?xml version="1.0" encoding="utf-8"?>
<!-- Generator: Adobe Illustrator 15.0.0, SVG Export Plug-In . SVG Version: 6.00 Build 0)  -->
<!DOCTYPE svg PUBLIC "-//W3C//DTD SVG 1.1//EN" "http://www.w3.org/Graphics/SVG/1.1/DTD/svg11.dtd">
<svg version="1.1" id="Layer_1" xmlns="http://www.w3.org/2000/svg" xmlns:xlink="http://www.w3.org/1999/xlink" x="0px" y="0px"
	 width="507.4px" height="187.09px" viewBox="0 0 507.4 187.09" enable-background="new 0 0 507.4 187.09" xml:space="preserve">
<g>
	<g>
		<g>
			
				<path fill="#F8EB33" stroke="#F8EB33" stroke-width="2" stroke-linecap="round" stroke-linejoin="round" stroke-miterlimit="10" d="
				M46.581,4.162c0-0.679,0.235-1.268,0.707-1.766c0.471-0.496,1.045-0.745,1.726-0.745h12.789c1.883,0,3.635,0.354,5.257,1.06
				c1.621,0.706,3.047,1.675,4.276,2.903c1.228,1.229,2.197,2.655,2.903,4.275c0.707,1.622,1.06,3.349,1.06,5.179
				c0,1.832-0.353,3.57-1.06,5.218c-0.706,1.647-1.675,3.074-2.903,4.276c-1.229,1.204-2.655,2.157-4.276,2.864
				c-1.622,0.706-3.374,1.059-5.257,1.059H51.445v20.871c0,0.681-0.235,1.256-0.706,1.727c-0.471,0.471-1.047,0.706-1.726,0.706
				c-0.681,0-1.255-0.235-1.726-0.706c-0.471-0.471-0.707-1.046-0.707-1.727V4.162z M51.445,6.516v17.105h10.357
				c1.15,0,2.249-0.222,3.295-0.667c1.046-0.444,1.962-1.06,2.746-1.844c0.786-0.785,1.4-1.688,1.845-2.707
				c0.444-1.021,0.667-2.131,0.667-3.335c0-1.149-0.223-2.248-0.667-3.295c-0.445-1.046-1.059-1.962-1.845-2.746
				c-0.784-0.785-1.7-1.399-2.746-1.845c-1.046-0.443-2.145-0.667-3.295-0.667H51.445z"/>
			
				<path fill="#F8EB33" stroke="#F8EB33" stroke-width="2" stroke-linecap="round" stroke-linejoin="round" stroke-miterlimit="10" d="
				M83.146,35.154c0.261,1.675,0.81,3.231,1.647,4.669c0.836,1.439,1.87,2.682,3.1,3.728c1.228,1.047,2.628,1.87,4.198,2.472
				c1.568,0.602,3.217,0.901,4.943,0.901c1.935,0,3.74-0.353,5.414-1.059s3.165-1.687,4.472-2.942
				c0.471-0.471,1.046-0.706,1.727-0.706c0.679,0,1.254,0.235,1.726,0.706c0.472,0.471,0.707,1.047,0.707,1.727
				c0,0.681-0.235,1.255-0.707,1.726c-1.726,1.936-3.675,3.309-5.845,4.119c-2.171,0.812-4.668,1.217-7.493,1.217
				c-2.617,0-5.061-0.471-7.336-1.413c-2.276-0.941-4.277-2.248-6.002-3.923c-1.727-1.674-3.088-3.66-4.081-5.964
				c-0.994-2.301-1.49-4.812-1.49-7.531c0-2.615,0.483-5.062,1.452-7.337c0.967-2.275,2.301-4.263,4.001-5.963
				c1.699-1.699,3.714-3.06,6.042-4.08c2.327-1.02,4.852-1.581,7.572-1.687c2.458,0,4.825,0.497,7.101,1.49
				c2.275,0.994,4.276,2.354,6.002,4.08c1.726,1.727,3.111,3.728,4.158,6.003c1.046,2.274,1.569,4.721,1.569,7.336
				c0,0.785-0.263,1.387-0.785,1.805c-0.523,0.419-1.073,0.627-1.647,0.627H83.146z M110.921,30.29
				c-0.314-1.62-0.891-3.139-1.727-4.551c-0.837-1.412-1.871-2.628-3.099-3.648c-1.23-1.02-2.617-1.83-4.159-2.432
				c-1.543-0.602-3.178-0.903-4.904-0.903s-3.362,0.302-4.904,0.903c-1.543,0.602-2.93,1.412-4.158,2.432
				c-1.229,1.021-2.25,2.236-3.06,3.648c-0.812,1.412-1.373,2.931-1.688,4.551H110.921z"/>
			
				<path fill="#F8EB33" stroke="#F8EB33" stroke-width="2" stroke-linecap="round" stroke-linejoin="round" stroke-miterlimit="10" d="
				M118.768,16.089c0-0.68,0.235-1.256,0.706-1.727c0.471-0.471,1.046-0.706,1.727-0.706c0.679,0,1.255,0.235,1.726,0.706
				s0.707,1.047,0.707,1.727v3.845c1.673-1.831,3.688-3.335,6.042-4.512s4.916-1.766,7.689-1.766c0.836,0,1.503,0.235,2,0.706
				s0.746,1.047,0.746,1.727s-0.249,1.255-0.746,1.726s-1.165,0.706-2,0.706c-1.884,0-3.637,0.367-5.257,1.099
				c-1.622,0.733-3.048,1.727-4.276,2.981c-1.229,1.256-2.224,2.695-2.981,4.315c-0.759,1.622-1.165,3.322-1.216,5.101v17.34
				c0,0.681-0.235,1.256-0.707,1.727s-1.047,0.706-1.726,0.706c-0.68,0-1.255-0.235-1.727-0.706
				c-0.471-0.471-0.706-1.046-0.706-1.727V16.089z"/>
			
				<path fill="#F8EB33" stroke="#F8EB33" stroke-width="2" stroke-linecap="round" stroke-linejoin="round" stroke-miterlimit="10" d="
				M141.993,23.621c0-1.831,0.366-3.374,1.099-4.629c0.732-1.256,1.699-2.276,2.903-3.061c1.203-0.784,2.563-1.347,4.08-1.687
				c1.517-0.34,3.034-0.511,4.551-0.511c1.256,0,2.589,0.145,4.002,0.432c1.412,0.288,2.719,0.72,3.922,1.295
				c1.203,0.576,2.197,1.282,2.981,2.118c0.785,0.838,1.178,1.832,1.178,2.981c0,0.576-0.197,1.138-0.589,1.688
				c-0.392,0.549-1.034,0.823-1.922,0.823c-0.995,0-1.753-0.574-2.276-1.726c-0.471-0.993-1.386-1.738-2.746-2.236
				c-1.361-0.496-2.878-0.745-4.551-0.745c-0.889,0-1.792,0.066-2.707,0.195c-0.916,0.132-1.74,0.393-2.472,0.785
				s-1.347,0.93-1.844,1.608c-0.497,0.681-0.745,1.569-0.745,2.668c0,0.784,0.248,1.465,0.745,2.04
				c0.497,0.576,1.125,1.059,1.884,1.451c0.757,0.393,1.595,0.694,2.511,0.902c0.915,0.21,1.791,0.393,2.628,0.55
				c1.936,0.313,3.753,0.772,5.454,1.373c1.699,0.602,3.19,1.373,4.472,2.314c1.281,0.942,2.301,2.066,3.06,3.374
				c0.758,1.309,1.138,2.824,1.138,4.551s-0.366,3.309-1.099,4.747c-0.733,1.438-1.74,2.667-3.021,3.687
				c-1.282,1.021-2.785,1.806-4.512,2.354c-1.725,0.55-3.557,0.824-5.492,0.824c-3.295,0-6.186-0.758-8.67-2.275
				c-2.485-1.517-4.146-3.609-4.982-6.277c-0.053-0.157-0.079-0.393-0.079-0.706c0-0.68,0.222-1.281,0.667-1.805
				c0.444-0.522,1.032-0.784,1.765-0.784c0.576,0,1.084,0.17,1.53,0.51c0.444,0.341,0.797,0.798,1.06,1.373
				c0.679,1.675,1.844,2.942,3.492,3.806c1.647,0.863,3.386,1.294,5.217,1.294c2.562,0,4.748-0.588,6.552-1.765
				c1.805-1.178,2.708-2.838,2.708-4.982c0-1.727-0.891-3.19-2.667-4.395c-1.779-1.202-3.977-1.987-6.592-2.354
				c-3.766-0.521-6.813-1.556-9.141-3.1C143.156,28.787,141.993,26.551,141.993,23.621z"/>
			
				<path fill="#F8EB33" stroke="#F8EB33" stroke-width="2" stroke-linecap="round" stroke-linejoin="round" stroke-miterlimit="10" d="
				M190.325,13.813c2.511,0,4.904,0.51,7.179,1.529c2.276,1.021,4.276,2.394,6.003,4.119c1.726,1.727,3.099,3.741,4.119,6.042
				c1.02,2.303,1.53,4.761,1.53,7.376c0,2.562-0.498,4.982-1.491,7.258c-0.994,2.275-2.341,4.276-4.041,6.002
				c-1.7,1.727-3.7,3.087-6.002,4.08c-2.302,0.994-4.786,1.491-7.454,1.491c-2.617,0-5.061-0.471-7.336-1.413
				c-2.276-0.941-4.277-2.248-6.003-3.923c-1.727-1.674-3.087-3.66-4.08-5.964c-0.994-2.301-1.491-4.812-1.491-7.531
				c0-2.615,0.482-5.062,1.452-7.337c0.968-2.275,2.301-4.263,4.001-5.963c1.7-1.699,3.713-3.06,6.042-4.08
				C185.08,14.48,187.604,13.919,190.325,13.813z M190.168,18.756c-1.936,0-3.754,0.367-5.454,1.099
				c-1.7,0.733-3.191,1.74-4.472,3.021c-1.283,1.283-2.289,2.786-3.021,4.512c-0.733,1.727-1.098,3.558-1.098,5.493
				s0.365,3.754,1.098,5.453c0.732,1.699,1.739,3.191,3.021,4.473c1.281,1.282,2.771,2.289,4.472,3.02
				c1.7,0.733,3.518,1.099,5.454,1.099c1.934,0,3.766-0.365,5.492-1.099c1.726-0.73,3.229-1.737,4.512-3.02
				c1.281-1.281,2.288-2.773,3.021-4.473c0.731-1.699,1.098-3.518,1.098-5.453s-0.367-3.767-1.098-5.493
				c-0.733-1.726-1.74-3.229-3.021-4.512c-1.283-1.28-2.786-2.287-4.512-3.021C193.934,19.123,192.103,18.756,190.168,18.756z"/>
			
				<path fill="#F8EB33" stroke="#F8EB33" stroke-width="2" stroke-linecap="round" stroke-linejoin="round" stroke-miterlimit="10" d="
				M212.765,16.089c0-0.68,0.236-1.256,0.707-1.727c0.471-0.471,1.045-0.706,1.726-0.706c0.679,0,1.256,0.235,1.727,0.706
				s0.706,1.047,0.706,1.727v1.02c1.203-1.046,2.589-1.883,4.159-2.511c1.568-0.628,3.242-0.941,5.021-0.941
				c1.935,0,3.766,0.366,5.492,1.099c1.726,0.733,3.229,1.739,4.512,3.021c1.281,1.282,2.288,2.785,3.02,4.512
				s1.099,3.558,1.099,5.492v21.577c0,0.681-0.235,1.256-0.707,1.727s-1.046,0.706-1.726,0.706c-0.68,0-1.256-0.235-1.727-0.706
				s-0.706-1.046-0.706-1.727V27.779c0-1.255-0.249-2.444-0.746-3.57c-0.498-1.124-1.165-2.104-2.001-2.942
				c-0.837-0.836-1.818-1.49-2.943-1.961s-2.314-0.706-3.569-0.706s-2.433,0.235-3.531,0.706c-1.098,0.471-2.067,1.099-2.903,1.883
				c-0.837,0.785-1.491,1.714-1.961,2.785c-0.471,1.073-0.733,2.211-0.785,3.413v21.97c0,0.681-0.235,1.256-0.706,1.727
				s-1.047,0.706-1.727,0.706c-0.681,0-1.255-0.235-1.726-0.706c-0.471-0.471-0.707-1.046-0.707-1.727V16.089z"/>
			
				<path fill="#F8EB33" stroke="#F8EB33" stroke-width="2" stroke-linecap="round" stroke-linejoin="round" stroke-miterlimit="10" d="
				M277.812,44.649c-1.727,1.936-3.807,3.597-6.238,4.982c-2.433,1.387-5.061,2.079-7.885,2.079c-2.617,0-5.062-0.471-7.337-1.413
				c-2.276-0.941-4.276-2.248-6.002-3.923c-1.727-1.674-3.088-3.66-4.081-5.964c-0.994-2.301-1.49-4.812-1.49-7.531
				c0-2.615,0.482-5.087,1.451-7.415c0.967-2.327,2.301-4.354,4.001-6.081c1.7-1.726,3.714-3.086,6.042-4.08
				c2.328-0.993,4.852-1.49,7.572-1.49c2.512,0,4.904,0.51,7.18,1.529c2.275,1.021,4.275,2.394,6.002,4.119
				c1.727,1.727,3.1,3.741,4.119,6.042c1.02,2.303,1.531,4.761,1.531,7.376v16.555c0,0.681-0.236,1.256-0.707,1.727
				s-1.047,0.706-1.727,0.706s-1.256-0.235-1.727-0.706s-0.705-1.046-0.705-1.727V44.649z M277.812,32.88
				c0-1.936-0.367-3.767-1.1-5.493c-0.732-1.726-1.738-3.229-3.02-4.512c-1.283-1.28-2.787-2.287-4.512-3.021
				c-1.727-0.731-3.559-1.099-5.492-1.099c-1.938,0-3.755,0.367-5.454,1.099c-1.7,0.733-3.191,1.74-4.472,3.021
				c-1.282,1.283-2.289,2.786-3.021,4.512c-0.734,1.727-1.099,3.558-1.099,5.493s0.365,3.754,1.099,5.453
				c0.731,1.699,1.738,3.191,3.021,4.473c1.281,1.282,2.772,2.289,4.472,3.02c1.699,0.733,3.517,1.099,5.454,1.099
				c1.882,0,3.66-0.353,5.335-1.059c1.673-0.706,3.15-1.687,4.433-2.942c1.281-1.255,2.301-2.733,3.061-4.434
				C277.275,36.791,277.707,34.919,277.812,32.88z"/>
			
				<path fill="#F8EB33" stroke="#F8EB33" stroke-width="2" stroke-linecap="round" stroke-linejoin="round" stroke-miterlimit="10" d="
				M288.091,4.084c0-0.68,0.235-1.256,0.706-1.727s1.046-0.706,1.727-0.706c0.679,0,1.255,0.235,1.726,0.706
				c0.472,0.471,0.706,1.047,0.706,1.727v45.272c0,0.681-0.234,1.256-0.706,1.727c-0.471,0.471-1.047,0.706-1.726,0.706
				c-0.681,0-1.256-0.235-1.727-0.706s-0.706-1.046-0.706-1.727V4.084z"/>
			
				<path fill="#F8EB33" stroke="#F8EB33" stroke-width="2" stroke-linecap="round" stroke-linejoin="round" stroke-miterlimit="10" d="
				M297.898,4.868c0-0.889,0.313-1.647,0.941-2.275c0.627-0.628,1.385-0.941,2.275-0.941c0.889,0,1.646,0.313,2.275,0.941
				c0.627,0.628,0.941,1.387,0.941,2.275c0,0.891-0.314,1.647-0.941,2.275c-0.629,0.628-1.387,0.941-2.275,0.941
				c-0.891,0-1.648-0.313-2.275-0.941C298.212,6.516,297.898,5.759,297.898,4.868z M298.682,16.089c0-0.68,0.236-1.256,0.707-1.727
				s1.045-0.706,1.727-0.706c0.679,0,1.255,0.235,1.726,0.706c0.472,0.471,0.706,1.047,0.706,1.727v33.268
				c0,0.681-0.234,1.256-0.706,1.727c-0.471,0.471-1.047,0.706-1.726,0.706c-0.682,0-1.256-0.235-1.727-0.706
				s-0.707-1.046-0.707-1.727V16.089z"/>
			
				<path fill="#F8EB33" stroke="#F8EB33" stroke-width="2" stroke-linecap="round" stroke-linejoin="round" stroke-miterlimit="10" d="
				M309.902,18.6c-0.681,0-1.255-0.235-1.727-0.706c-0.471-0.472-0.706-1.046-0.706-1.727c0-0.679,0.235-1.255,0.706-1.727
				c0.472-0.471,1.046-0.706,1.727-0.706h30.601c0.575,0,1.11,0.235,1.608,0.706c0.496,0.472,0.745,1.021,0.745,1.648
				c0,0.627-0.263,1.255-0.784,1.883L315.63,46.924h25.03c0.679,0,1.255,0.235,1.726,0.707c0.471,0.471,0.706,1.047,0.706,1.726
				c0,0.681-0.235,1.256-0.706,1.727s-1.047,0.706-1.726,0.706h-30.836c-0.682,0-1.256-0.235-1.727-0.706s-0.707-1.021-0.707-1.648
				c0-0.627,0.236-1.228,0.707-1.804L334.854,18.6H309.902z"/>
			
				<path fill="#F8EB33" stroke="#F8EB33" stroke-width="2" stroke-linecap="round" stroke-linejoin="round" stroke-miterlimit="10" d="
				M378.4,44.649c-1.727,1.936-3.807,3.597-6.238,4.982c-2.434,1.387-5.061,2.079-7.885,2.079c-2.617,0-5.062-0.471-7.338-1.413
				c-2.275-0.941-4.275-2.248-6.002-3.923c-1.727-1.674-3.088-3.66-4.08-5.964c-0.994-2.301-1.49-4.812-1.49-7.531
				c0-2.615,0.482-5.087,1.451-7.415c0.967-2.327,2.301-4.354,4.002-6.081c1.699-1.726,3.713-3.086,6.041-4.08
				c2.327-0.993,4.852-1.49,7.572-1.49c2.511,0,4.903,0.51,7.18,1.529c2.275,1.021,4.275,2.394,6.002,4.119
				c1.726,1.727,3.099,3.741,4.119,6.042c1.02,2.303,1.53,4.761,1.53,7.376v16.555c0,0.681-0.235,1.256-0.706,1.727
				c-0.472,0.471-1.047,0.706-1.727,0.706s-1.256-0.235-1.727-0.706s-0.705-1.046-0.705-1.727V44.649z M378.4,32.88
				c0-1.936-0.367-3.767-1.1-5.493c-0.732-1.726-1.738-3.229-3.02-4.512c-1.283-1.28-2.787-2.287-4.512-3.021
				c-1.727-0.731-3.559-1.099-5.492-1.099c-1.938,0-3.755,0.367-5.455,1.099c-1.699,0.733-3.191,1.74-4.472,3.021
				c-1.282,1.283-2.288,2.786-3.021,4.512c-0.734,1.727-1.099,3.558-1.099,5.493s0.364,3.754,1.099,5.453
				c0.732,1.699,1.738,3.191,3.021,4.473c1.28,1.282,2.772,2.289,4.472,3.02c1.7,0.733,3.518,1.099,5.455,1.099
				c1.882,0,3.66-0.353,5.335-1.059c1.673-0.706,3.15-1.687,4.433-2.942c1.281-1.255,2.301-2.733,3.061-4.434
				C377.863,36.791,378.294,34.919,378.4,32.88z"/>
			
				<path fill="#F8EB33" stroke="#F8EB33" stroke-width="2" stroke-linecap="round" stroke-linejoin="round" stroke-miterlimit="10" d="
				M388.443,16.089c0-0.68,0.235-1.256,0.706-1.727c0.47-0.471,1.046-0.706,1.726-0.706s1.256,0.235,1.727,0.706
				s0.706,1.047,0.706,1.727v0.863c0.889-0.89,2.052-1.7,3.491-2.433c1.438-0.732,2.916-1.099,4.434-1.099
				c2.197,0,4.184,0.484,5.963,1.451c1.777,0.969,3.242,2.264,4.395,3.884c1.202-1.62,2.693-2.915,4.473-3.884
				c1.777-0.967,3.766-1.451,5.963-1.451c1.777,0,3.451,0.341,5.021,1.02c1.568,0.681,2.928,1.597,4.079,2.746
				c1.15,1.151,2.066,2.512,2.746,4.08c0.679,1.569,1.021,3.244,1.021,5.021v23.068c0,0.681-0.234,1.256-0.706,1.727
				s-1.047,0.706-1.726,0.706c-0.681,0-1.256-0.235-1.727-0.706s-0.706-1.046-0.706-1.727V26.288c0-1.098-0.21-2.13-0.628-3.099
				c-0.42-0.968-0.994-1.817-1.727-2.55s-1.583-1.308-2.549-1.727c-0.969-0.418-2.002-0.628-3.1-0.628c-1.1,0-2.133,0.21-3.1,0.628
				c-0.969,0.419-1.805,0.994-2.511,1.727s-1.269,1.582-1.688,2.55c-0.419,0.969-0.628,2.001-0.628,3.099v23.068
				c0,0.681-0.234,1.256-0.705,1.727s-1.048,0.706-1.727,0.706c-0.682,0-1.256-0.235-1.727-0.706s-0.707-1.046-0.707-1.727V26.288
				c-0.104-2.301-0.928-4.21-2.471-5.728c-1.543-1.517-3.387-2.275-5.531-2.275c-2.197,0-4.041,0.746-5.531,2.236
				c-1.492,1.491-2.289,3.309-2.394,5.453v23.382c0,0.681-0.235,1.256-0.706,1.727s-1.047,0.706-1.727,0.706
				s-1.256-0.235-1.726-0.706c-0.471-0.471-0.706-1.046-0.706-1.727V16.089z"/>
			
				<path fill="#F8EB33" stroke="#F8EB33" stroke-width="2" stroke-linecap="round" stroke-linejoin="round" stroke-miterlimit="10" d="
				M457.727,13.813c2.511,0,4.903,0.51,7.18,1.529c2.275,1.021,4.275,2.394,6.002,4.119c1.727,1.727,3.1,3.741,4.119,6.042
				c1.02,2.303,1.53,4.761,1.53,7.376c0,2.562-0.497,4.982-1.491,7.258s-2.341,4.276-4.041,6.002c-1.7,1.727-3.701,3.087-6.002,4.08
				c-2.303,0.994-4.786,1.491-7.453,1.491c-2.617,0-5.062-0.471-7.336-1.413c-2.276-0.941-4.277-2.248-6.004-3.923
				c-1.727-1.674-3.087-3.66-4.08-5.964c-0.994-2.301-1.49-4.812-1.49-7.531c0-2.615,0.482-5.062,1.451-7.337
				c0.968-2.275,2.301-4.263,4.002-5.963c1.699-1.699,3.713-3.06,6.041-4.08C452.481,14.48,455.006,13.919,457.727,13.813z
				 M457.57,18.756c-1.937,0-3.754,0.367-5.455,1.099c-1.699,0.733-3.189,1.74-4.471,3.021c-1.283,1.283-2.289,2.786-3.021,4.512
				c-0.732,1.727-1.098,3.558-1.098,5.493s0.365,3.754,1.098,5.453s1.738,3.191,3.021,4.473c1.281,1.282,2.771,2.289,4.471,3.02
				c1.701,0.733,3.519,1.099,5.455,1.099c1.934,0,3.766-0.365,5.492-1.099c1.726-0.73,3.229-1.737,4.511-3.02
				c1.282-1.281,2.288-2.773,3.021-4.473c0.731-1.699,1.099-3.518,1.099-5.453s-0.367-3.767-1.099-5.493
				c-0.733-1.726-1.739-3.229-3.021-4.512c-1.282-1.28-2.785-2.287-4.511-3.021C461.336,19.123,459.504,18.756,457.57,18.756z"/>
			
				<path fill="#F8EB33" stroke="#F8EB33" stroke-width="2" stroke-linecap="round" stroke-linejoin="round" stroke-miterlimit="10" d="
				M478.99,23.621c0-1.831,0.365-3.374,1.098-4.629c0.732-1.256,1.699-2.276,2.903-3.061c1.202-0.784,2.562-1.347,4.081-1.687
				c1.516-0.34,3.033-0.511,4.551-0.511c1.255,0,2.588,0.145,4.001,0.432c1.412,0.288,2.72,0.72,3.923,1.295
				c1.203,0.576,2.197,1.282,2.982,2.118c0.784,0.838,1.176,1.832,1.176,2.981c0,0.576-0.195,1.138-0.588,1.688
				c-0.393,0.549-1.033,0.823-1.922,0.823c-0.994,0-1.754-0.574-2.276-1.726c-0.47-0.993-1.386-1.738-2.746-2.236
				c-1.36-0.496-2.877-0.745-4.55-0.745c-0.891,0-1.793,0.066-2.707,0.195c-0.916,0.132-1.74,0.393-2.473,0.785
				s-1.347,0.93-1.844,1.608c-0.498,0.681-0.744,1.569-0.744,2.668c0,0.784,0.246,1.465,0.744,2.04
				c0.497,0.576,1.125,1.059,1.883,1.451s1.596,0.694,2.512,0.902c0.914,0.21,1.791,0.393,2.629,0.55
				c1.934,0.313,3.752,0.772,5.453,1.373c1.698,0.602,3.189,1.373,4.473,2.314c1.28,0.942,2.301,2.066,3.06,3.374
				c0.757,1.309,1.138,2.824,1.138,4.551s-0.367,3.309-1.1,4.747s-1.738,2.667-3.02,3.687c-1.283,1.021-2.786,1.806-4.512,2.354
				c-1.727,0.55-3.559,0.824-5.492,0.824c-3.297,0-6.188-0.758-8.67-2.275c-2.486-1.517-4.146-3.609-4.983-6.277
				c-0.052-0.157-0.078-0.393-0.078-0.706c0-0.68,0.222-1.281,0.667-1.805c0.443-0.522,1.032-0.784,1.765-0.784
				c0.575,0,1.085,0.17,1.53,0.51c0.443,0.341,0.797,0.798,1.059,1.373c0.68,1.675,1.845,2.942,3.492,3.806
				c1.648,0.863,3.387,1.294,5.219,1.294c2.562,0,4.746-0.588,6.551-1.765c1.805-1.178,2.707-2.838,2.707-4.982
				c0-1.727-0.891-3.19-2.668-4.395c-1.777-1.202-3.975-1.987-6.59-2.354c-3.768-0.521-6.814-1.556-9.141-3.1
				C480.153,28.787,478.99,26.551,478.99,23.621z"/>
		</g>
	</g>
	<g>
		
			<path fill="#F8EB33" stroke="#F8EB33" stroke-width="2" stroke-linecap="round" stroke-linejoin="round" stroke-miterlimit="10" d="
			M47.972,133.101c-0.894,0-1.341-0.447-1.341-1.342c0-0.893,0.447-1.34,1.341-1.34h7.375v-11.396c0-0.894,0.447-1.341,1.34-1.341
			c0.893,0,1.341,0.447,1.341,1.341v11.396h7.375c0.893,0,1.34,0.447,1.34,1.34c0,0.895-0.448,1.342-1.34,1.342h-7.375v36.618
			c0,0.895-0.448,1.341-1.341,1.341c-0.894,0-1.34-0.446-1.34-1.341v-36.618H47.972z"/>
		
			<path fill="#F8EB33" stroke="#F8EB33" stroke-width="2" stroke-linecap="round" stroke-linejoin="round" stroke-miterlimit="10" d="
			M65.737,150.781c0-2.793,0.53-5.433,1.592-7.919c1.061-2.485,2.514-4.65,4.357-6.494c1.844-1.844,3.994-3.296,6.452-4.357
			c2.458-1.061,5.083-1.592,7.877-1.592c2.737,0,5.349,0.531,7.835,1.592c2.485,1.062,4.65,2.501,6.494,4.315
			c1.844,1.815,3.31,3.953,4.4,6.41c1.088,2.459,1.633,5.085,1.633,7.877v19.105c0,0.895-0.448,1.341-1.34,1.341
			c-0.894,0-1.34-0.446-1.34-1.341v-9.218c-1.789,3.073-4.232,5.602-7.332,7.584c-3.101,1.983-6.55,2.975-10.35,2.975
			c-2.794,0-5.419-0.53-7.877-1.592c-2.458-1.061-4.608-2.514-6.452-4.357c-1.843-1.844-3.296-3.994-4.357-6.452
			C66.268,156.2,65.737,153.575,65.737,150.781z M68.419,150.781c0,2.402,0.46,4.679,1.383,6.829
			c0.921,2.151,2.179,4.021,3.771,5.614s3.463,2.849,5.614,3.771c2.151,0.922,4.428,1.383,6.83,1.383s4.678-0.461,6.83-1.383
			c2.15-0.922,4.022-2.178,5.615-3.771c1.592-1.593,2.862-3.463,3.812-5.614c0.949-2.15,1.425-4.427,1.425-6.829
			c0-2.401-0.476-4.679-1.425-6.829c-0.95-2.15-2.22-4.022-3.812-5.615c-1.592-1.592-3.464-2.861-5.615-3.812
			c-2.151-0.949-4.428-1.424-6.83-1.424s-4.679,0.475-6.83,1.424c-2.15,0.951-4.022,2.221-5.614,3.812
			c-1.592,1.593-2.849,3.465-3.771,5.615C68.879,146.103,68.419,148.38,68.419,150.781z"/>
		
			<path fill="#F8EB33" stroke="#F8EB33" stroke-width="2" stroke-linecap="round" stroke-linejoin="round" stroke-miterlimit="10" d="
			M162.186,169.719c0,0.392-0.14,0.713-0.418,0.964c-0.281,0.251-0.586,0.377-0.921,0.377c-0.895,0-1.341-0.446-1.341-1.341v-24.636
			c0-1.676-0.209-3.239-0.628-4.692c-0.419-1.452-1.034-2.724-1.844-3.813c-0.81-1.089-1.831-1.954-3.059-2.597
			c-1.229-0.643-2.653-0.964-4.273-0.964c-1.675,0-3.184,0.335-4.525,1.005c-1.341,0.671-2.513,1.565-3.52,2.683
			c-1.005,1.117-1.788,2.401-2.346,3.854c-0.559,1.454-0.867,2.963-0.921,4.525v24.636v0.168c-0.113,0.782-0.56,1.173-1.341,1.173
			c-0.895,0-1.341-0.446-1.341-1.341v-24.636c0-1.676-0.208-3.239-0.628-4.692c-0.419-1.452-1.047-2.724-1.886-3.813
			c-0.837-1.089-1.872-1.94-3.1-2.556c-1.229-0.614-2.654-0.921-4.273-0.921c-1.676,0-3.184,0.307-4.525,0.921
			c-1.34,0.615-2.5,1.454-3.478,2.515c-0.978,1.062-1.747,2.29-2.304,3.687c-0.559,1.397-0.867,2.878-0.921,4.441v25.055
			c0,0.895-0.448,1.341-1.341,1.341c-0.335,0-0.642-0.126-0.921-0.377c-0.28-0.251-0.418-0.572-0.418-0.964v-37.96
			c0-0.389,0.138-0.712,0.418-0.963c0.279-0.252,0.586-0.377,0.921-0.377c0.893,0,1.341,0.447,1.341,1.34v5.112
			c1.73-2.514,3.547-4.218,5.447-5.112c1.898-0.893,3.826-1.34,5.782-1.34c2.849,0,5.292,0.754,7.332,2.263
			c2.038,1.508,3.449,3.464,4.231,5.865c0.949-2.457,2.569-4.427,4.86-5.908c2.29-1.479,4.776-2.22,7.458-2.22
			c2.011,0,3.799,0.391,5.363,1.173c1.563,0.782,2.862,1.83,3.896,3.142c1.034,1.313,1.829,2.864,2.389,4.651
			c0.558,1.788,0.837,3.688,0.837,5.698V169.719z"/>
		
			<path fill="#F8EB33" stroke="#F8EB33" stroke-width="2" stroke-linecap="round" stroke-linejoin="round" stroke-miterlimit="10" d="
			M166.376,150.781c0-2.793,0.531-5.433,1.593-7.919c1.06-2.485,2.513-4.65,4.357-6.494s3.993-3.296,6.452-4.357
			c2.458-1.061,5.083-1.592,7.877-1.592c2.736,0,5.349,0.531,7.834,1.592c2.486,1.062,4.651,2.501,6.495,4.315
			c1.844,1.815,3.31,3.953,4.399,6.41c1.089,2.459,1.634,5.085,1.634,7.877v19.105c0,0.895-0.448,1.341-1.341,1.341
			s-1.34-0.446-1.34-1.341v-9.218c-1.789,3.073-4.231,5.602-7.332,7.584c-3.101,1.983-6.55,2.975-10.349,2.975
			c-2.794,0-5.419-0.53-7.877-1.592c-2.459-1.061-4.608-2.514-6.452-4.357s-3.297-3.994-4.357-6.452
			C166.907,156.2,166.376,153.575,166.376,150.781z M169.058,150.781c0,2.402,0.461,4.679,1.383,6.829
			c0.922,2.151,2.178,4.021,3.77,5.614c1.593,1.593,3.464,2.849,5.615,3.771c2.15,0.922,4.427,1.383,6.83,1.383
			c2.401,0,4.678-0.461,6.83-1.383c2.149-0.922,4.022-2.178,5.614-3.771s2.863-3.463,3.813-5.614
			c0.949-2.15,1.424-4.427,1.424-6.829c0-2.401-0.475-4.679-1.424-6.829c-0.95-2.15-2.221-4.022-3.813-5.615
			c-1.592-1.592-3.464-2.861-5.614-3.812c-2.152-0.949-4.428-1.424-6.83-1.424c-2.402,0-4.68,0.475-6.83,1.424
			c-2.15,0.951-4.022,2.221-5.615,3.812c-1.592,1.593-2.848,3.465-3.77,5.615S169.058,148.38,169.058,150.781z"/>
		
			<path fill="#F8EB33" stroke="#F8EB33" stroke-width="2" stroke-linecap="round" stroke-linejoin="round" stroke-miterlimit="10" d="
			M211.208,121.368c0-0.39,0.111-0.697,0.335-0.921c0.558-0.558,1.2-1.201,1.927-1.927c0.725-0.727,1.494-1.411,2.304-2.054
			c0.809-0.642,1.662-1.173,2.556-1.592c0.893-0.42,1.788-0.629,2.682-0.629c1.676,0,3.03,0.35,4.064,1.048
			c1.033,0.699,1.997,1.453,2.891,2.263c0.893,0.81,1.814,1.564,2.765,2.262c0.95,0.699,2.179,1.048,3.688,1.048
			c0.838,0,1.605-0.168,2.305-0.503c0.698-0.335,1.353-0.768,1.969-1.299c0.614-0.53,1.159-1.103,1.634-1.718
			c0.474-0.614,0.88-1.201,1.215-1.76c0.111-0.223,0.278-0.419,0.502-0.587c0.222-0.167,0.474-0.251,0.754-0.251
			c0.614,0,1.019,0.251,1.215,0.754c0.195,0.503,0.153,0.979-0.125,1.425c-1.119,2.011-2.543,3.617-4.273,4.818
			c-1.733,1.201-3.465,1.801-5.196,1.801c-1.676,0-3.016-0.348-4.022-1.047c-1.005-0.698-1.927-1.452-2.765-2.263
			c-0.838-0.81-1.747-1.563-2.724-2.263c-0.979-0.697-2.277-1.047-3.896-1.047c-0.671,0-1.341,0.167-2.011,0.502
			s-1.312,0.755-1.927,1.258c-0.615,0.503-1.202,1.062-1.76,1.676c-0.56,0.615-1.09,1.173-1.592,1.676
			c-0.503,0.559-1.048,0.755-1.634,0.587C211.5,122.458,211.208,122.039,211.208,121.368z M212.799,169.216
			c0.055,0,0.083,0.028,0.083,0.085h-0.083h-0.084C212.715,169.244,212.743,169.216,212.799,169.216z M212.883,168.965v0.167v0.169
			V168.965z M242.295,169.719c0,0.392-0.14,0.713-0.419,0.964c-0.28,0.251-0.587,0.377-0.922,0.377c-0.894,0-1.34-0.446-1.34-1.341
			v-24.636c0-1.676-0.309-3.239-0.922-4.692c-0.616-1.452-1.466-2.709-2.556-3.771c-1.089-1.06-2.347-1.898-3.771-2.514
			c-1.425-0.614-2.947-0.922-4.567-0.922c-1.676,0-3.226,0.308-4.651,0.922c-1.424,0.615-2.668,1.439-3.729,2.472
			c-1.062,1.034-1.914,2.249-2.556,3.646c-0.643,1.397-0.992,2.878-1.047,4.441v25.055c0,0.895-0.448,1.341-1.341,1.341
			c-0.335,0-0.643-0.126-0.922-0.377c-0.28-0.251-0.418-0.572-0.418-0.964v-37.96c0-0.389,0.138-0.712,0.418-0.963
			c0.279-0.252,0.586-0.377,0.922-0.377c0.893,0,1.341,0.447,1.341,1.34v5.112c1.73-2.514,3.672-4.218,5.824-5.112
			c2.15-0.893,4.203-1.34,6.159-1.34c2.011,0,3.896,0.391,5.656,1.173s3.296,1.83,4.609,3.142c1.312,1.313,2.346,2.864,3.101,4.651
			c0.754,1.788,1.131,3.688,1.131,5.698V169.719z"/>
		
			<path fill="#F8EB33" stroke="#F8EB33" stroke-width="2" stroke-linecap="round" stroke-linejoin="round" stroke-miterlimit="10" d="
			M246.988,150.781c0-2.793,0.53-5.433,1.592-7.919c1.06-2.485,2.514-4.65,4.357-6.494c1.844-1.844,3.994-3.296,6.453-4.357
			c2.457-1.061,5.082-1.592,7.876-1.592c2.793,0,5.418,0.531,7.877,1.592c2.457,1.062,4.609,2.514,6.452,4.357
			c1.844,1.844,3.311,4.009,4.398,6.494c1.091,2.486,1.635,5.126,1.635,7.919c0,2.794-0.531,5.419-1.592,7.877
			c-1.062,2.458-2.514,4.608-4.357,6.452s-4.01,3.297-6.494,4.357c-2.486,1.062-5.126,1.592-7.919,1.592
			c-2.794,0-5.419-0.53-7.876-1.592c-2.459-1.061-4.609-2.514-6.453-4.357c-1.843-1.844-3.297-3.994-4.357-6.452
			C247.519,156.2,246.988,153.575,246.988,150.781z M249.67,150.781c0,2.402,0.461,4.679,1.382,6.829
			c0.922,2.151,2.179,4.021,3.771,5.614c1.593,1.593,3.462,2.849,5.614,3.771c2.15,0.922,4.427,1.383,6.829,1.383
			c2.401,0,4.679-0.461,6.829-1.383s4.023-2.178,5.615-3.771s2.861-3.463,3.812-5.614c0.949-2.15,1.424-4.427,1.424-6.829
			c0-2.401-0.475-4.679-1.424-6.829c-0.951-2.15-2.221-4.022-3.812-5.615c-1.592-1.592-3.465-2.861-5.615-3.812
			c-2.15-0.949-4.428-1.424-6.829-1.424c-2.402,0-4.679,0.475-6.829,1.424c-2.152,0.951-4.021,2.221-5.614,3.812
			c-1.592,1.593-2.849,3.465-3.771,5.615C250.131,146.103,249.67,148.38,249.67,150.781z"/>
		
			<path fill="#F8EB33" stroke="#F8EB33" stroke-width="2" stroke-linecap="round" stroke-linejoin="round" stroke-miterlimit="10" d="
			M333.045,131.173c0.279-0.781,0.866-1.033,1.76-0.754c0.336,0.112,0.588,0.322,0.755,0.628c0.167,0.308,0.194,0.657,0.083,1.048
			l-20.277,53.21c-0.113,0.391-0.35,0.671-0.713,0.838c-0.363,0.168-0.741,0.168-1.131,0c-0.336-0.112-0.574-0.335-0.713-0.67
			c-0.14-0.335-0.153-0.671-0.042-1.006l5.698-14.915l-14.245-37.373c-0.112-0.391-0.083-0.74,0.084-1.048
			c0.167-0.307,0.419-0.517,0.755-0.629c0.893-0.278,1.479-0.026,1.76,0.755l13.072,34.439L333.045,131.173z"/>
		
			<path fill="#F8EB33" stroke="#F8EB33" stroke-width="2" stroke-linecap="round" stroke-linejoin="round" stroke-miterlimit="10" d="
			M372.764,168.378c2.346,0,4.553-0.446,6.619-1.341c2.066-0.893,3.91-2.066,5.531-3.519c0.279-0.279,0.613-0.42,1.006-0.42
			c0.893,0,1.34,0.448,1.34,1.341c0,0.28-0.112,0.587-0.335,0.923c-1.621,1.955-3.687,3.393-6.2,4.314
			c-2.516,0.922-5.168,1.383-7.961,1.383c-2.795,0-5.419-0.53-7.877-1.592c-2.459-1.061-4.609-2.514-6.453-4.357
			c-1.842-1.844-3.297-3.994-4.356-6.452c-1.062-2.458-1.592-5.083-1.592-7.877c0-2.793,0.53-5.433,1.592-7.919
			c1.06-2.485,2.515-4.65,4.356-6.494c1.844-1.844,3.994-3.296,6.453-4.357c2.458-1.061,5.082-1.592,7.877-1.592
			c2.736,0,5.321,0.518,7.751,1.55c2.43,1.034,4.567,2.444,6.41,4.231c0.279,0.28,0.419,0.615,0.419,1.006
			c0,0.895-0.447,1.341-1.341,1.341c-0.448,0-0.782-0.111-1.005-0.335c-1.621-1.62-3.465-2.877-5.531-3.771
			c-2.067-0.893-4.303-1.34-6.703-1.34c-2.402,0-4.68,0.475-6.83,1.424c-2.15,0.951-4.021,2.221-5.613,3.812
			c-1.594,1.593-2.85,3.465-3.771,5.615s-1.383,4.428-1.383,6.829c0,2.402,0.461,4.679,1.383,6.829
			c0.922,2.151,2.178,4.021,3.771,5.614c1.592,1.593,3.463,2.849,5.613,3.771S370.361,168.378,372.764,168.378z"/>
		
			<path fill="#F8EB33" stroke="#F8EB33" stroke-width="2" stroke-linecap="round" stroke-linejoin="round" stroke-miterlimit="10" d="
			M390.193,150.781c0-2.793,0.529-5.433,1.592-7.919c1.061-2.485,2.514-4.65,4.357-6.494s3.992-3.296,6.451-4.357
			c2.459-1.061,5.084-1.592,7.877-1.592s5.418,0.531,7.877,1.592c2.459,1.062,4.609,2.514,6.453,4.357s3.309,4.009,4.399,6.494
			c1.089,2.486,1.634,5.126,1.634,7.919c0,2.794-0.532,5.419-1.593,7.877c-1.062,2.458-2.514,4.608-4.356,6.452
			c-1.844,1.844-4.01,3.297-6.494,4.357c-2.486,1.062-5.127,1.592-7.92,1.592s-5.418-0.53-7.877-1.592
			c-2.459-1.061-4.607-2.514-6.451-4.357s-3.297-3.994-4.357-6.452C390.723,156.2,390.193,153.575,390.193,150.781z
			 M392.875,150.781c0,2.402,0.46,4.679,1.382,6.829c0.922,2.151,2.179,4.021,3.771,5.614s3.464,2.849,5.614,3.771
			c2.149,0.922,4.427,1.383,6.829,1.383s4.679-0.461,6.83-1.383c2.149-0.922,4.022-2.178,5.615-3.771
			c1.592-1.593,2.861-3.463,3.812-5.614c0.949-2.15,1.425-4.427,1.425-6.829c0-2.401-0.476-4.679-1.425-6.829
			c-0.95-2.15-2.22-4.022-3.812-5.615c-1.593-1.592-3.466-2.861-5.615-3.812c-2.151-0.949-4.428-1.424-6.83-1.424
			s-4.68,0.475-6.829,1.424c-2.15,0.951-4.022,2.221-5.614,3.812c-1.592,1.593-2.849,3.465-3.771,5.615
			S392.875,148.38,392.875,150.781z"/>
		
			<path fill="#F8EB33" stroke="#F8EB33" stroke-width="2" stroke-linecap="round" stroke-linejoin="round" stroke-miterlimit="10" d="
			M435.023,119.022c0-0.894,0.447-1.341,1.342-1.341c0.893,0,1.34,0.447,1.34,1.341v50.696c0,0.895-0.447,1.341-1.34,1.341
			c-0.895,0-1.342-0.446-1.342-1.341V119.022z"/>
		
			<path fill="#F8EB33" stroke="#F8EB33" stroke-width="2" stroke-linecap="round" stroke-linejoin="round" stroke-miterlimit="10" d="
			M441.895,150.781c0-2.793,0.531-5.433,1.593-7.919c1.06-2.485,2.514-4.65,4.356-6.494c1.844-1.844,3.994-3.296,6.453-4.357
			c2.457-1.061,5.082-1.592,7.877-1.592c2.793,0,5.418,0.531,7.877,1.592c2.457,1.062,4.609,2.514,6.451,4.357
			c1.844,1.844,3.311,4.009,4.399,6.494c1.091,2.486,1.634,5.126,1.634,7.919c0,2.794-0.53,5.419-1.592,7.877
			s-2.514,4.608-4.356,6.452c-1.844,1.844-4.01,3.297-6.495,4.357c-2.486,1.062-5.125,1.592-7.918,1.592
			c-2.795,0-5.42-0.53-7.877-1.592c-2.459-1.061-4.609-2.514-6.453-4.357c-1.843-1.844-3.297-3.994-4.356-6.452
			C442.426,156.2,441.895,153.575,441.895,150.781z M444.576,150.781c0,2.402,0.461,4.679,1.383,6.829
			c0.922,2.151,2.179,4.021,3.771,5.614c1.592,1.593,3.462,2.849,5.614,3.771c2.149,0.922,4.427,1.383,6.829,1.383
			c2.4,0,4.678-0.461,6.829-1.383c2.149-0.922,4.022-2.178,5.614-3.771s2.862-3.463,3.812-5.614c0.949-2.15,1.424-4.427,1.424-6.829
			c0-2.401-0.475-4.679-1.424-6.829c-0.95-2.15-2.221-4.022-3.812-5.615c-1.592-1.592-3.465-2.861-5.614-3.812
			c-2.151-0.949-4.429-1.424-6.829-1.424c-2.402,0-4.68,0.475-6.829,1.424c-2.152,0.951-4.022,2.221-5.614,3.812
			c-1.593,1.593-2.85,3.465-3.771,5.615S444.576,148.38,444.576,150.781z"/>
		
			<path fill="#F8EB33" stroke="#F8EB33" stroke-width="2" stroke-linecap="round" stroke-linejoin="round" stroke-miterlimit="10" d="
			M485.637,131.759c0-0.278,0.111-0.571,0.335-0.88c0.223-0.306,0.558-0.46,1.006-0.46c0.335,0,0.642,0.125,0.921,0.377
			c0.279,0.251,0.42,0.574,0.42,0.963v9.135c2.121-3.464,4.525-6.076,7.206-7.836c2.682-1.759,5.95-2.639,9.804-2.639
			c0.447,0,0.782,0.154,1.006,0.46c0.223,0.309,0.335,0.602,0.335,0.88c0,0.281-0.112,0.574-0.335,0.88
			c-0.224,0.308-0.559,0.462-1.006,0.462c-2.346,0-4.539,0.46-6.578,1.382s-3.812,2.165-5.32,3.729
			c-1.509,1.564-2.724,3.366-3.645,5.404c-0.923,2.04-1.412,4.178-1.467,6.41v19.776c0,0.392-0.141,0.699-0.42,0.921
			c-0.279,0.225-0.586,0.336-0.921,0.336c-0.895,0-1.341-0.446-1.341-1.341V131.759z"/>
	</g>
	<g>
		<g>
			
				<path fill="#F8EB33" stroke="#F8EB33" stroke-width="2" stroke-linecap="round" stroke-linejoin="round" stroke-miterlimit="10" d="
				M12.611,76.219h4.533l-1.24,5.318h-4.577L7.734,96.412c-0.649,2.696-0.973,4.371-0.973,5.023c0,1.48,0.783,2.221,2.352,2.221
				c1.089,0,2.733-0.609,4.932-1.827l-1.272,5.415c-2.001,0.979-3.947,1.469-5.839,1.469c-1.784,0-3.23-0.577-4.339-1.729
				c-1.109-1.152-1.664-2.772-1.664-4.86c0-1.414,0.603-4.546,1.81-9.396L5.42,81.537H1.908l1.24-5.318h3.566l1.523-6.264
				l7.247-5.64L12.611,76.219z"/>
			
				<path fill="#F8EB33" stroke="#F8EB33" stroke-width="2" stroke-linecap="round" stroke-linejoin="round" stroke-miterlimit="10" d="
				M44.608,102.481h3.979l-1.24,5.317h-9.944l0.895-3.653c-3.897,2.783-7.357,4.176-10.383,4.176c-2.264,0-4.06-0.739-5.387-2.219
				c-1.328-1.479-1.992-3.066-1.992-4.763c0-1.283,0.359-3.437,1.077-6.46l3.1-13.343h-3.915l1.272-5.318h9.814l-4.041,17.128
				c-0.804,3.458-1.206,5.59-1.206,6.395c0,0.936,0.321,1.696,0.965,2.283c0.644,0.588,1.444,0.881,2.405,0.881
				c2.312,0,5.539-1.533,9.682-4.6l3.977-16.769h-4.73l1.24-5.318h10.661L44.608,102.481z"/>
			
				<path fill="#F8EB33" stroke="#F8EB33" stroke-width="2" stroke-linecap="round" stroke-linejoin="round" stroke-miterlimit="10" d="
				M74.66,102.481l4.698-20.944h-4.372l1.24-5.318h10.208l-5.89,26.263h4.599l-1.239,5.317H69.93l1.239-5.317H74.66z M82.392,65.355
				c0-1.022,0.359-1.897,1.077-2.627c0.718-0.729,1.577-1.093,2.577-1.093c1.045,0,1.914,0.37,2.611,1.109
				c0.695,0.74,1.043,1.609,1.043,2.61c0,1.021-0.354,1.897-1.06,2.626s-1.572,1.093-2.594,1.093c-0.978,0-1.832-0.364-2.56-1.093
				C82.755,67.253,82.392,66.377,82.392,65.355z"/>
			
				<path fill="#F8EB33" stroke="#F8EB33" stroke-width="2" stroke-linecap="round" stroke-linejoin="round" stroke-miterlimit="10" d="
				M120.66,102.481h4.371l-1.272,5.317h-10.245l0.911-3.882c-3.001,2.937-6.524,4.404-10.569,4.404
				c-3.893,0-6.992-1.321-9.296-3.964s-3.458-6.019-3.458-10.13c0-4.98,1.744-9.374,5.232-13.181
				c3.488-3.806,7.558-5.709,12.209-5.709c4.498,0,8.247,1.882,11.247,5.645l3.121-13.245h-4.926l1.24-5.318h10.798L120.66,102.481z
				 M97.203,94.13c0,2.675,0.755,4.833,2.266,6.476c1.51,1.643,3.494,2.464,5.95,2.464c3.303,0,6.156-1.42,8.558-4.258
				c2.401-2.839,3.602-6.139,3.602-9.901c0-2.741-0.831-4.812-2.494-6.216c-1.663-1.402-3.635-2.104-5.917-2.104
				c-3.26,0-6.07,1.402-8.428,4.208S97.203,90.716,97.203,94.13z"/>
			
				<path fill="#F8EB33" stroke="#F8EB33" stroke-width="2" stroke-linecap="round" stroke-linejoin="round" stroke-miterlimit="10" d="
				M163.299,93.444h-24.794c-0.153,0.631-0.229,1.229-0.229,1.794c0,2.611,0.751,4.645,2.252,6.102
				c1.5,1.457,3.381,2.186,5.644,2.186c3.153,0,5.829-1.501,8.025-4.503l6.166,2.643c-1.24,2.067-3.164,3.758-5.774,5.074
				c-2.61,1.315-5.394,1.974-8.351,1.974c-4.546,0-8.081-1.315-10.604-3.947s-3.784-6.003-3.784-10.114
				c0-3.283,0.832-6.394,2.496-9.33s3.887-5.334,6.672-7.193c2.784-1.86,5.829-2.79,9.135-2.79c4.001,0,7.27,1.311,9.804,3.932
				c2.533,2.621,3.801,6.041,3.801,10.26C163.757,90.9,163.604,92.205,163.299,93.444z M157.721,89.007
				c0.065-0.674,0.099-1.217,0.099-1.631c0-1.739-0.691-3.321-2.072-4.746c-1.381-1.425-3.213-2.138-5.497-2.138
				c-2.328,0-4.432,0.767-6.313,2.301c-1.882,1.533-3.301,3.605-4.258,6.214H157.721z"/>
			
				<path fill="#F8EB33" stroke="#F8EB33" stroke-width="2" stroke-linecap="round" stroke-linejoin="round" stroke-miterlimit="10" d="
				M193.717,102.481h3.948l-1.142,5.317h-9.636l1.011-4.436c-3.022,3.306-6.427,4.958-10.211,4.958c-2.458,0-4.66-0.837-6.606-2.513
				c-1.947-1.674-2.92-3.903-2.92-6.688c0-3.175,1.283-5.802,3.85-7.879c2.566-2.077,5.741-3.115,9.526-3.115
				c2.936,0,5.873,0.772,8.809,2.315l0.816-3.522c0.282-1.219,0.424-2.088,0.424-2.61c0-1.37-0.544-2.419-1.632-3.148
				c-1.088-0.729-2.415-1.093-3.98-1.093c-3.088,0-5.676,1.501-7.764,4.502l-4.959-2.25c1.285-1.979,3.169-3.639,5.652-4.976
				c2.483-1.338,5.195-2.007,8.136-2.007c3.31,0,5.88,0.719,7.71,2.155c1.831,1.436,2.745,3.297,2.745,5.582
				c0,1.415-0.241,3.21-0.722,5.383L193.717,102.481z M189.399,94.743l-1.402-0.65c-2.175-0.954-4.177-1.432-6.003-1.432
				c-2.393,0-4.318,0.613-5.775,1.839c-1.458,1.225-2.186,2.694-2.186,4.406c0,1.454,0.505,2.597,1.517,3.433
				c1.011,0.835,2.343,1.251,3.996,1.251c2.566,0,5.459-1.376,8.679-4.13L189.399,94.743z"/>
			
				<path fill="#F8EB33" stroke="#F8EB33" stroke-width="2" stroke-linecap="round" stroke-linejoin="round" stroke-miterlimit="10" d="
				M252.331,93.444h-24.794c-0.153,0.631-0.229,1.229-0.229,1.794c0,2.611,0.751,4.645,2.252,6.102
				c1.5,1.457,3.381,2.186,5.644,2.186c3.153,0,5.829-1.501,8.025-4.503l6.166,2.643c-1.239,2.067-3.164,3.758-5.774,5.074
				c-2.61,1.315-5.394,1.974-8.352,1.974c-4.546,0-8.081-1.315-10.604-3.947c-2.522-2.632-3.784-6.003-3.784-10.114
				c0-3.283,0.832-6.394,2.496-9.33s3.887-5.334,6.672-7.193c2.783-1.86,5.829-2.79,9.134-2.79c4.001,0,7.27,1.311,9.804,3.932
				c2.534,2.621,3.801,6.041,3.801,10.26C252.788,90.9,252.635,92.205,252.331,93.444z M246.752,89.007
				c0.065-0.674,0.099-1.217,0.099-1.631c0-1.739-0.691-3.321-2.072-4.746c-1.381-1.425-3.213-2.138-5.497-2.138
				c-2.327,0-4.432,0.767-6.313,2.301c-1.881,1.533-3.301,3.605-4.257,6.214H246.752z"/>
			
				<path fill="#F8EB33" stroke="#F8EB33" stroke-width="2" stroke-linecap="round" stroke-linejoin="round" stroke-miterlimit="10" d="
				M261.01,76.219h9.98l-0.811,3.687c3.991-2.784,7.463-4.176,10.418-4.176c2.359,0,4.174,0.762,5.442,2.285
				c1.268,1.523,1.901,3.155,1.901,4.896c0,1.458-0.293,3.438-0.881,5.938l-3.195,13.634h4.666l-1.272,5.317h-10.524l4.506-19.346
				c0.476-2.065,0.714-3.36,0.714-3.883c0-0.956-0.319-1.745-0.958-2.364c-0.64-0.62-1.422-0.931-2.347-0.931
				c-2.446,0-5.685,1.393-9.716,4.176l-3.834,17.03h4.73l-1.24,5.317h-14.366l1.239-5.317h3.752l4.697-20.944h-4.143L261.01,76.219z
				"/>
		</g>
	</g>
</g>
</svg>
