<?xml version="1.0" encoding="utf-8"?>
<!-- Generator: Adobe Illustrator 15.0.0, SVG Export Plug-In . SVG Version: 6.00 Build 0)  -->
<!DOCTYPE svg PUBLIC "-//W3C//DTD SVG 1.1//EN" "http://www.w3.org/Graphics/SVG/1.1/DTD/svg11.dtd">
<svg version="1.1" id="Layer_1" xmlns="http://www.w3.org/2000/svg" xmlns:xlink="http://www.w3.org/1999/xlink" x="0px" y="0px"
	 width="382.677px" height="240.945px" viewBox="-31.183 -19.843 382.677 240.945"
	 enable-background="new -31.183 -19.843 382.677 240.945" xml:space="preserve">
<g>
	<g>
		<g>
			<path fill="#732B90" d="M-30.888-13.532c0-1.029,0.356-1.904,1.072-2.618c0.712-0.713,1.584-1.07,2.616-1.07h20.458
				c5.234,0,10.15,0.993,14.75,2.973c4.599,1.984,8.624,4.698,12.073,8.148c3.45,3.449,6.166,7.476,8.149,12.073
				c1.982,4.601,2.974,9.517,2.974,14.75c0,5.234-0.993,10.171-2.974,14.809c-1.984,4.639-4.698,8.684-8.149,12.133
				c-3.45,3.449-7.474,6.167-12.073,8.148c-4.6,1.983-9.515,2.974-14.75,2.974H-27.2c-1.032,0-1.903-0.356-2.617-1.071
				c-0.714-0.714-1.071-1.585-1.071-2.618L-30.888-13.532L-30.888-13.532z M-23.513-9.845v61.258h16.771
				c4.204,0,8.167-0.812,11.896-2.439c3.726-1.624,6.978-3.825,9.753-6.602c2.774-2.774,4.955-6.024,6.542-9.753
				c1.585-3.727,2.38-7.69,2.38-11.895c0-4.202-0.795-8.167-2.38-11.895c-1.586-3.727-3.767-6.978-6.542-9.755
				c-2.777-2.774-6.028-4.954-9.753-6.542C1.425-9.052-2.54-9.845-6.742-9.845H-23.513z"/>
			<path fill="#732B90" d="M43.098,33.57c0.396,2.539,1.229,4.898,2.498,7.078c1.269,2.181,2.834,4.064,4.699,5.651
				c1.862,1.586,3.985,2.835,6.363,3.746c2.379,0.913,4.877,1.369,7.494,1.369c2.933,0,5.668-0.536,8.207-1.605
				c2.537-1.071,4.796-2.559,6.78-4.46c0.714-0.714,1.585-1.071,2.617-1.071c1.029,0,1.903,0.356,2.616,1.071
				c0.714,0.713,1.071,1.586,1.071,2.617c0,1.031-0.357,1.903-1.071,2.616c-2.616,2.935-5.572,5.017-8.862,6.245
				c-3.292,1.23-7.077,1.844-11.359,1.844c-3.967,0-7.673-0.714-11.123-2.142c-3.449-1.427-6.482-3.408-9.098-5.947
				c-2.617-2.538-4.681-5.55-6.186-9.04c-1.507-3.489-2.261-7.295-2.261-11.418c0-3.964,0.733-7.673,2.201-11.122
				c1.466-3.45,3.489-6.462,6.065-9.041c2.576-2.576,5.629-4.64,9.159-6.185c3.527-1.547,7.355-2.397,11.478-2.558
				c3.726,0,7.315,0.755,10.765,2.26c3.449,1.508,6.482,3.568,9.1,6.186c2.616,2.618,4.716,5.651,6.304,9.1
				c1.585,3.45,2.379,7.157,2.379,11.123c0,1.189-0.398,2.102-1.19,2.736c-0.793,0.635-1.626,0.951-2.497,0.951L43.098,33.57
				L43.098,33.57z M85.206,26.196c-0.477-2.457-1.35-4.758-2.617-6.899c-1.269-2.142-2.836-3.985-4.698-5.531
				c-1.865-1.546-3.965-2.774-6.305-3.688c-2.34-0.912-4.817-1.369-7.434-1.369s-5.097,0.457-7.435,1.368
				c-2.34,0.913-4.442,2.142-6.304,3.687c-1.864,1.546-3.411,3.39-4.639,5.531c-1.23,2.142-2.082,4.442-2.558,6.898h41.989V26.196z"
				/>
			<path fill="#732B90" d="M125.886,1.335c3.171,0,6.025,0.476,8.564,1.427c2.536,0.952,4.716,2.043,6.541,3.271
				c1.824,1.23,3.23,2.458,4.224,3.688c0.991,1.229,1.487,2.162,1.487,2.794c0,0.874-0.357,1.626-1.071,2.26
				c-0.714,0.636-1.507,0.952-2.379,0.952c-1.03,0-1.903-0.357-2.617-1.071c-1.982-1.743-4.242-3.153-6.779-4.223
				c-2.539-1.071-5.275-1.605-8.208-1.605c-2.935,0-5.691,0.555-8.268,1.666c-2.577,1.111-4.838,2.636-6.78,4.579
				c-1.944,1.944-3.469,4.223-4.58,6.839c-1.111,2.618-1.665,5.393-1.665,8.327c0,2.935,0.554,5.691,1.665,8.266
				c1.111,2.579,2.636,4.839,4.58,6.78c1.943,1.944,4.204,3.47,6.78,4.58c2.576,1.112,5.333,1.666,8.268,1.666
				c2.933,0,5.669-0.535,8.208-1.605c2.537-1.071,4.797-2.558,6.779-4.461c0.714-0.714,1.586-1.071,2.617-1.071
				c0.951,0,1.803,0.337,2.558,1.011c0.753,0.675,1.129,1.527,1.129,2.558c0,0.635-0.457,1.567-1.367,2.794
				c-0.912,1.23-2.28,2.438-4.104,3.627c-1.824,1.189-4.064,2.221-6.72,3.093c-2.658,0.874-5.691,1.309-9.1,1.309
				c-3.965,0-7.673-0.714-11.122-2.142c-3.449-1.427-6.482-3.409-9.099-5.948c-2.617-2.537-4.681-5.55-6.186-9.04
				c-1.507-3.489-2.26-7.295-2.26-11.418c0-3.964,0.733-7.673,2.2-11.122c1.467-3.45,3.489-6.462,6.067-9.041
				c2.576-2.576,5.63-4.638,9.159-6.184C117.934,2.347,121.762,1.496,125.886,1.335z"/>
			<path fill="#732B90" d="M179.889,1.217c3.807,0,7.434,0.772,10.884,2.318s6.483,3.628,9.099,6.246
				c2.617,2.617,4.698,5.669,6.245,9.158c1.547,3.49,2.319,7.217,2.319,11.182c0,3.886-0.755,7.553-2.261,11.002
				c-1.509,3.45-3.551,6.482-6.125,9.099c-2.578,2.618-5.61,4.68-9.099,6.186c-3.491,1.507-7.256,2.26-11.301,2.26
				c-3.965,0-7.67-0.714-11.122-2.142c-3.45-1.427-6.482-3.408-9.099-5.947c-2.617-2.538-4.68-5.551-6.186-9.041
				c-1.507-3.489-2.261-7.294-2.261-11.418c0-3.964,0.732-7.673,2.201-11.122c1.467-3.45,3.489-6.462,6.065-9.041
				c2.574-2.576,5.629-4.639,9.158-6.185C171.939,2.228,175.766,1.376,179.889,1.217z M179.651,8.71
				c-2.934,0-5.691,0.555-8.266,1.666c-2.578,1.111-4.838,2.638-6.779,4.58c-1.944,1.944-3.472,4.223-4.581,6.839
				c-1.112,2.617-1.666,5.394-1.666,8.326c0,2.935,0.554,5.691,1.666,8.268c1.109,2.578,2.637,4.837,4.581,6.78
				c1.941,1.944,4.201,3.469,6.779,4.579c2.574,1.112,5.332,1.666,8.266,1.666c2.933,0,5.709-0.554,8.326-1.666
				c2.618-1.11,4.896-2.635,6.841-4.579c1.941-1.943,3.466-4.202,4.58-6.78c1.109-2.576,1.665-5.333,1.665-8.268
				c0-2.932-0.556-5.709-1.665-8.326c-1.114-2.616-2.639-4.896-4.58-6.839c-1.944-1.942-4.223-3.469-6.841-4.58
				C185.36,9.267,182.584,8.71,179.651,8.71z"/>
			<path fill="#732B90" d="M212.599,4.667c0-1.03,0.358-1.904,1.072-2.616c0.714-0.715,1.586-1.072,2.616-1.072
				c1.031,0,1.905,0.356,2.618,1.072c0.714,0.712,1.07,1.586,1.07,2.616v5.829c2.538-2.775,5.593-5.056,9.16-6.84
				c3.568-1.783,7.453-2.676,11.655-2.676c1.27,0,2.279,0.356,3.033,1.072c0.754,0.713,1.13,1.586,1.13,2.617
				s-0.376,1.902-1.13,2.616c-0.754,0.714-1.766,1.071-3.033,1.071c-2.854,0-5.512,0.555-7.968,1.666
				c-2.46,1.111-4.621,2.617-6.483,4.519c-1.863,1.903-3.371,4.085-4.521,6.542c-1.149,2.459-1.765,5.036-1.844,7.732v26.287
				c0,1.032-0.356,1.904-1.07,2.618c-0.713,0.714-1.587,1.071-2.618,1.071c-1.03,0-1.902-0.356-2.616-1.071
				c-0.714-0.714-1.072-1.585-1.072-2.618V4.667z"/>
			<path fill="#732B90" d="M295.389,47.963c-2.616,2.935-5.769,5.454-9.456,7.553c-3.687,2.102-7.671,3.151-11.954,3.151
				c-3.965,0-7.671-0.714-11.121-2.142c-3.45-1.427-6.483-3.408-9.1-5.947c-2.616-2.538-4.68-5.551-6.186-9.041
				c-1.507-3.489-2.261-7.294-2.261-11.418c0-3.964,0.732-7.71,2.201-11.241c1.468-3.527,3.489-6.602,6.065-9.219
				c2.576-2.618,5.629-4.678,9.16-6.185c3.525-1.505,7.354-2.26,11.478-2.26c3.808,0,7.435,0.773,10.885,2.318
				c3.45,1.546,6.483,3.628,9.1,6.246c2.617,2.617,4.697,5.669,6.244,9.158c1.547,3.49,2.318,7.217,2.318,11.182v25.098
				c0,1.031-0.356,1.903-1.07,2.618c-0.715,0.713-1.588,1.071-2.618,1.071c-1.031,0-1.903-0.356-2.616-1.071
				c-0.716-0.714-1.071-1.585-1.071-2.618v-7.254H295.389z M295.389,30.121c0-2.932-0.556-5.709-1.666-8.326
				c-1.113-2.616-2.637-4.896-4.58-6.839c-1.943-1.942-4.222-3.469-6.839-4.58c-2.617-1.109-5.395-1.666-8.326-1.666
				c-2.935,0-5.692,0.555-8.268,1.666c-2.577,1.111-4.837,2.638-6.778,4.58c-1.944,1.944-3.471,4.223-4.58,6.839
				c-1.111,2.617-1.665,5.394-1.665,8.326c0,2.935,0.554,5.691,1.665,8.268c1.109,2.578,2.636,4.837,4.58,6.78
				c1.941,1.944,4.201,3.469,6.778,4.579c2.575,1.112,5.333,1.666,8.268,1.666c2.855,0,5.55-0.536,8.089-1.605
				c2.536-1.071,4.776-2.559,6.721-4.46c1.942-1.903,3.487-4.143,4.64-6.722C294.574,36.051,295.228,33.214,295.389,30.121z"/>
		</g>
	</g>
	<g>
		<g>
			<path fill="#732B90" d="M156.451,77.818h8.579l-2.347,10.064h-8.663l-6.801,28.156c-1.229,5.105-1.843,8.273-1.843,9.51
				c0,2.801,1.483,4.201,4.451,4.201c2.061,0,5.172-1.152,9.334-3.457l-2.408,10.248c-3.788,1.854-7.472,2.779-11.054,2.779
				c-3.376,0-6.112-1.092-8.212-3.271c-2.1-2.184-3.15-5.25-3.15-9.201c0-2.676,1.141-8.604,3.427-17.783l5.074-21.181h-6.648
				l2.346-10.064h6.749l2.885-11.855l13.716-10.676L156.451,77.818z"/>
			<path fill="#732B90" d="M217.013,127.528h7.532l-2.347,10.064h-18.823l1.694-6.918c-7.376,5.271-13.927,7.904-19.651,7.904
				c-4.286,0-7.685-1.398-10.196-4.199c-2.514-2.799-3.77-5.805-3.77-9.016c0-2.426,0.68-6.504,2.037-12.225l5.867-25.257h-7.41
				l2.408-10.064h18.577l-7.649,32.417c-1.521,6.547-2.281,10.582-2.281,12.102c0,1.771,0.609,3.213,1.825,4.324
				c1.218,1.111,2.734,1.668,4.554,1.668c4.373,0,10.482-2.902,18.323-8.707l7.529-31.74h-8.953l2.346-10.064h20.179
				L217.013,127.528z"/>
		</g>
	</g>
	<g>
		<path fill="#732B90" d="M39.587,189.503c0.889-0.889,1.819-0.928,2.791-0.121c0.889,0.893,0.928,1.82,0.122,2.791
			c-2.59,2.348-5.642,4.268-9.161,5.764c-3.518,1.498-7.218,2.244-11.101,2.244c-4.046,0-7.848-0.768-11.406-2.305
			c-3.56-1.535-6.674-3.641-9.342-6.311c-2.669-2.668-4.774-5.781-6.31-9.342c-1.538-3.559-2.305-7.361-2.305-11.406
			s0.768-7.865,2.305-11.465c1.536-3.6,3.639-6.734,6.31-9.404c2.668-2.67,5.782-4.773,9.342-6.309
			c3.558-1.537,7.36-2.307,11.406-2.307c3.962,0,7.724,0.77,11.284,2.307c3.558,1.535,6.674,3.619,9.343,6.248
			c2.668,2.631,4.793,5.725,6.369,9.283c1.578,3.561,2.407,7.32,2.488,11.285v0.242v0.123c-0.163,1.213-0.809,1.82-1.942,1.82
			H-3.244c0.242,3.314,1.071,6.41,2.486,9.281c1.417,2.871,3.276,5.359,5.583,7.461c2.307,2.105,4.955,3.783,7.949,5.035
			c2.991,1.256,6.146,1.881,9.465,1.881c3.396,0,6.552-0.605,9.464-1.82C34.614,193.267,37.241,191.608,39.587,189.503z
			 M22.237,145.218c-3.318,0-6.473,0.627-9.465,1.879c-2.993,1.254-5.623,2.934-7.886,5.035c-2.267,2.107-4.125,4.592-5.582,7.463
			c-1.457,2.871-2.306,5.926-2.548,9.16h50.96c-0.243-3.234-1.092-6.289-2.548-9.16c-1.456-2.871-3.336-5.357-5.642-7.463
			c-2.306-2.102-4.935-3.781-7.887-5.035C28.686,145.845,25.552,145.218,22.237,145.218z"/>
		<path fill="#732B90" d="M55.483,155.53c0-2.668,0.547-4.914,1.638-6.734c1.09-1.822,2.526-3.275,4.307-4.367
			c1.778-1.094,3.781-1.881,6.005-2.367s4.51-0.727,6.856-0.727c1.942,0,3.882,0.182,5.824,0.545
			c1.942,0.365,3.74,0.912,5.399,1.639c1.657,0.727,3.094,1.678,4.308,2.854c1.214,1.172,2.021,2.566,2.427,4.184
			c0.161,0.568,0.061,1.053-0.303,1.457c-0.363,0.406-0.951,0.607-1.758,0.607c-0.648,0-1.214-0.486-1.699-1.457
			c-1.135-2.021-2.994-3.58-5.583-4.67c-2.59-1.094-5.46-1.639-8.615-1.639c-1.62,0-3.297,0.141-5.036,0.424
			c-1.741,0.283-3.336,0.83-4.792,1.637c-1.456,0.811-2.65,1.902-3.58,3.277c-0.931,1.373-1.395,3.154-1.395,5.338
			c0,1.781,0.464,3.258,1.395,4.43c0.93,1.172,2.082,2.143,3.458,2.914c1.375,0.768,2.913,1.373,4.612,1.818
			c1.697,0.445,3.314,0.789,4.853,1.031c2.991,0.566,5.805,1.316,8.432,2.244c2.628,0.932,4.934,2.084,6.917,3.457
			c1.981,1.377,3.538,3.018,4.671,4.914c1.131,1.902,1.699,4.109,1.699,6.613c0,2.59-0.568,4.936-1.699,7.039
			c-1.133,2.104-2.649,3.922-4.549,5.459c-1.902,1.537-4.148,2.713-6.736,3.52c-2.59,0.809-5.338,1.213-8.25,1.213
			c-4.935,0-9.281-1.07-13.043-3.217c-3.761-2.143-6.208-5.156-7.341-9.041c-0.164-0.805-0.103-1.516,0.182-2.121
			c0.282-0.607,0.789-0.912,1.517-0.912c0.403,0,0.808,0.082,1.213,0.244c0.404,0.164,0.769,0.648,1.092,1.455
			c0.565,1.457,1.435,2.791,2.609,4.006c1.171,1.213,2.506,2.242,4.004,3.094c1.496,0.848,3.094,1.498,4.793,1.941
			s3.355,0.668,4.975,0.668c2.427,0,4.69-0.305,6.794-0.91c2.102-0.607,3.943-1.477,5.521-2.611
			c1.578-1.131,2.831-2.525,3.761-4.186c0.929-1.656,1.396-3.537,1.396-5.643c0-1.535-0.466-3.033-1.396-4.488
			c-0.93-1.457-2.183-2.75-3.761-3.885c-1.579-1.131-3.418-2.102-5.521-2.91c-2.104-0.809-4.329-1.414-6.674-1.82
			c-2.668-0.404-5.156-0.988-7.461-1.76c-2.306-0.768-4.309-1.719-6.008-2.852c-1.697-1.131-3.033-2.508-4.004-4.125
			C55.965,159.495,55.483,157.636,55.483,155.53z"/>
		<path fill="#732B90" d="M100.133,143.276c0-1.293,0.647-1.941,1.942-1.941c1.293,0,1.941,0.648,1.941,1.941v12.863
			c2.507-4.451,6.007-8.029,10.497-10.742c4.489-2.709,9.482-4.062,14.984-4.062c4.045,0,7.846,0.77,11.405,2.305
			c3.559,1.537,6.674,3.641,9.344,6.309c2.668,2.67,4.793,5.807,6.368,9.404c1.579,3.6,2.367,7.422,2.367,11.467
			s-0.771,7.848-2.305,11.404c-1.538,3.561-3.64,6.674-6.31,9.344c-2.668,2.668-5.804,4.773-9.404,6.309
			c-3.6,1.537-7.421,2.307-11.466,2.307c-5.502,0-10.477-1.436-14.924-4.309c-4.449-2.869-7.969-6.533-10.557-10.982V220.2
			c0,1.295-0.648,1.941-1.941,1.941c-1.296,0-1.942-0.646-1.942-1.941V143.276L100.133,143.276z M104.017,170.819
			c0,3.479,0.668,6.775,2.002,9.889c1.334,3.115,3.156,5.824,5.46,8.129c2.305,2.307,5.015,4.125,8.129,5.459
			c3.113,1.336,6.41,2.004,9.889,2.004c3.478,0,6.774-0.668,9.891-2.004c3.112-1.334,5.824-3.154,8.129-5.459
			c2.306-2.305,4.145-5.014,5.521-8.129c1.374-3.113,2.062-6.41,2.062-9.889c0-3.477-0.688-6.773-2.062-9.891
			c-1.376-3.113-3.216-5.824-5.521-8.129c-2.305-2.307-5.017-4.146-8.129-5.521c-3.116-1.373-6.412-2.061-9.891-2.061
			c-3.396,0-6.612,0.646-9.645,1.939c-3.034,1.295-5.703,3.074-8.008,5.338c-2.305,2.268-4.167,4.875-5.583,7.826
			c-1.416,2.953-2.165,6.127-2.245,9.525L104.017,170.819L104.017,170.819z"/>
		<path fill="#732B90" d="M162.865,170.819c0-4.045,0.768-7.867,2.306-11.467c1.535-3.6,3.641-6.734,6.309-9.404
			c2.669-2.668,5.782-4.771,9.343-6.309c3.559-1.535,7.36-2.305,11.405-2.305c3.962,0,7.746,0.77,11.344,2.305
			c3.598,1.537,6.734,3.621,9.404,6.25s4.793,5.723,6.37,9.281c1.576,3.562,2.366,7.361,2.366,11.406v27.664
			c0,1.295-0.647,1.943-1.942,1.943c-1.294,0-1.939-0.648-1.939-1.943v-13.348c-2.591,4.451-6.128,8.111-10.618,10.98
			c-4.488,2.873-9.484,4.311-14.984,4.311c-4.045,0-7.848-0.77-11.405-2.307c-3.561-1.535-6.673-3.641-9.343-6.311
			c-2.668-2.668-4.773-5.781-6.309-9.342C163.633,178.667,162.865,174.864,162.865,170.819z M166.749,170.819
			c0,3.479,0.669,6.775,2.003,9.889c1.334,3.115,3.154,5.824,5.458,8.129c2.306,2.307,5.014,4.125,8.13,5.459
			c3.115,1.336,6.41,2.004,9.889,2.004c3.478,0,6.774-0.668,9.89-2.004c3.115-1.334,5.825-3.154,8.13-5.459
			c2.307-2.305,4.145-5.014,5.521-8.129c1.374-3.113,2.063-6.41,2.063-9.889c0-3.477-0.688-6.773-2.063-9.891
			c-1.377-3.113-3.217-5.824-5.521-8.129c-2.305-2.307-5.015-4.146-8.13-5.521c-3.115-1.373-6.411-2.061-9.89-2.061
			c-3.478,0-6.773,0.686-9.889,2.061s-5.823,3.217-8.13,5.521c-2.305,2.305-4.124,5.016-5.458,8.129
			C167.416,164.046,166.749,167.343,166.749,170.819z"/>
		<path fill="#732B90" d="M256.416,196.3c3.398,0,6.593-0.646,9.586-1.943c2.993-1.291,5.661-2.99,8.008-5.096
			c0.403-0.402,0.89-0.605,1.457-0.605c1.293,0,1.939,0.646,1.939,1.941c0,0.404-0.162,0.848-0.482,1.334
			c-2.349,2.832-5.339,4.914-8.979,6.25c-3.641,1.334-7.482,2.002-11.528,2.002c-4.045,0-7.847-0.77-11.405-2.307
			c-3.561-1.535-6.673-3.641-9.343-6.309c-2.669-2.67-4.774-5.783-6.309-9.344c-1.537-3.559-2.308-7.359-2.308-11.404
			s0.771-7.867,2.308-11.467c1.534-3.6,3.64-6.734,6.309-9.404c2.668-2.668,5.782-4.771,9.343-6.309
			c3.56-1.535,7.36-2.305,11.405-2.305c3.963,0,7.705,0.748,11.225,2.244c3.518,1.498,6.611,3.539,9.283,6.127
			c0.403,0.406,0.605,0.891,0.605,1.457c0,1.295-0.647,1.939-1.94,1.939c-0.648,0-1.135-0.158-1.457-0.482
			c-2.347-2.346-5.016-4.166-8.008-5.461c-2.994-1.293-6.23-1.939-9.707-1.939c-3.478,0-6.774,0.686-9.89,2.062
			c-3.114,1.375-5.822,3.215-8.129,5.52c-2.304,2.305-4.124,5.016-5.459,8.129c-1.334,3.117-2.002,6.412-2.002,9.891
			s0.668,6.775,2.002,9.889c1.335,3.115,3.156,5.824,5.459,8.129c2.307,2.307,5.015,4.125,8.129,5.461
			C249.64,195.632,252.938,196.3,256.416,196.3z"/>
		<path fill="#732B90" d="M281.775,129.687c0-0.891,0.304-1.658,0.91-2.307c0.608-0.646,1.353-0.971,2.244-0.971
			c0.89,0,1.659,0.324,2.307,0.971c0.647,0.648,0.971,1.416,0.971,2.307c0,0.889-0.323,1.637-0.971,2.244
			c-0.647,0.605-1.417,0.91-2.307,0.91c-0.892,0-1.636-0.305-2.244-0.91C282.079,131.323,281.775,130.575,281.775,129.687z
			 M283.353,143.397c0-1.295,0.646-1.941,1.942-1.941c1.293,0,1.94,0.646,1.94,1.941v54.963c0,1.295-0.647,1.943-1.94,1.943
			c-1.296,0-1.942-0.648-1.942-1.943V143.397z"/>
		<path fill="#732B90" d="M292.94,170.819c0-4.045,0.768-7.867,2.305-11.467c1.535-3.6,3.641-6.734,6.31-9.404
			c2.668-2.668,5.783-4.771,9.343-6.309c3.56-1.535,7.36-2.305,11.405-2.305s7.847,0.77,11.406,2.305
			c3.558,1.537,6.674,3.641,9.344,6.309c2.668,2.67,4.793,5.807,6.37,9.404c1.577,3.6,2.365,7.422,2.365,11.467
			s-0.77,7.848-2.305,11.404c-1.538,3.561-3.641,6.674-6.309,9.344c-2.67,2.668-5.808,4.773-9.405,6.309
			c-3.6,1.537-7.421,2.307-11.466,2.307s-7.847-0.77-11.404-2.307c-3.561-1.535-6.674-3.641-9.344-6.309
			c-2.669-2.67-4.774-5.783-6.31-9.344C293.708,178.667,292.94,174.864,292.94,170.819z M296.822,170.819
			c0,3.479,0.669,6.775,2.003,9.889c1.334,3.115,3.154,5.824,5.46,8.129c2.304,2.307,5.012,4.125,8.129,5.459
			c3.114,1.336,6.409,2.004,9.889,2.004s6.775-0.668,9.89-2.004c3.114-1.334,5.824-3.154,8.13-5.459
			c2.307-2.305,4.146-5.014,5.521-8.129c1.374-3.113,2.064-6.41,2.064-9.889c0-3.477-0.689-6.773-2.064-9.891
			c-1.375-3.113-3.216-5.824-5.521-8.129c-2.306-2.307-5.016-4.146-8.13-5.521c-3.114-1.373-6.409-2.061-9.89-2.061
			c-3.479,0-6.774,0.686-9.889,2.061c-3.115,1.375-5.824,3.217-8.129,5.521c-2.307,2.305-4.126,5.016-5.46,8.129
			C297.491,164.046,296.822,167.343,296.822,170.819z"/>
	</g>
</g>
</svg>
