<?xml version="1.0" encoding="utf-8"?>
<!-- Generator: Adobe Illustrator 15.0.0, SVG Export Plug-In . SVG Version: 6.00 Build 0)  -->
<!DOCTYPE svg PUBLIC "-//W3C//DTD SVG 1.1//EN" "http://www.w3.org/Graphics/SVG/1.1/DTD/svg11.dtd">
<svg version="1.1" id="Layer_1" xmlns="http://www.w3.org/2000/svg" xmlns:xlink="http://www.w3.org/1999/xlink" x="0px" y="0px"
	 width="538.58px" height="232.44px" viewBox="0 0 538.58 232.44" enable-background="new 0 0 538.58 232.44" xml:space="preserve">
<g>
	<g>
		<g>
			<path fill="#1EABE2" d="M196.489,199.768c0-3.835,0.901-7.524,2.703-11.065c1.802-3.539,4.5-6.475,8.091-8.805
				c3.592-2.329,7.627-3.494,12.108-3.494c5.2,0,9.204,1.519,12.011,4.557c2.806,3.038,4.209,6.874,4.209,11.508
				c0,3.657-0.895,7.403-2.684,11.239c-1.79,3.837-4.538,6.829-8.246,8.979c-3.707,2.149-7.634,3.226-11.779,3.226
				c-4.789,0-8.722-1.422-11.798-4.268C198.027,208.8,196.489,204.841,196.489,199.768z M204.291,199.073
				c0,6.745,3.128,10.117,9.385,10.117c4.377,0,7.891-1.68,10.543-5.039c2.651-3.359,3.978-7.241,3.978-11.645
				c0-2.832-0.908-5.104-2.723-6.816c-1.815-1.712-4.216-2.568-7.203-2.568c-4.223,0-7.608,1.623-10.157,4.867
				C205.565,191.231,204.291,194.929,204.291,199.073z"/>
			<path fill="#1EABE2" d="M265.04,177.445h11.815l-0.96,4.364c4.724-3.295,8.836-4.943,12.334-4.943c2.792,0,4.94,0.901,6.44,2.705
				c1.502,1.803,2.252,3.734,2.252,5.795c0,1.726-0.348,4.068-1.042,7.029l-3.783,16.139h5.522l-1.506,6.295h-12.459l5.336-22.902
				c0.562-2.445,0.844-3.977,0.844-4.595c0-1.132-0.379-2.065-1.135-2.8c-0.756-0.733-1.682-1.101-2.777-1.101
				c-2.895,0-6.729,1.647-11.502,4.942l-4.538,20.16h5.601l-1.469,6.295h-17.006l1.467-6.295h4.441l5.562-24.794h-4.905
				L265.04,177.445z"/>
			<path fill="#1EABE2" d="M342.049,197.837h-29.352c-0.181,0.746-0.271,1.454-0.271,2.124c0,3.09,0.888,5.497,2.665,7.222
				c1.776,1.727,4.003,2.588,6.682,2.588c3.732,0,6.898-1.777,9.5-5.33l7.299,3.129c-1.467,2.446-3.746,4.447-6.836,6.005
				c-3.089,1.558-6.385,2.337-9.887,2.337c-5.381,0-9.564-1.559-12.551-4.674c-2.987-3.115-4.48-7.105-4.48-11.971
				c0-3.889,0.984-7.57,2.955-11.047c1.969-3.475,4.602-6.314,7.897-8.516s6.899-3.301,10.813-3.301
				c4.736,0,8.605,1.551,11.605,4.653c2.999,3.103,4.499,7.151,4.499,12.146C342.589,194.823,342.408,196.369,342.049,197.837z
				 M335.444,192.585c0.077-0.799,0.116-1.441,0.116-1.932c0-2.059-0.818-3.933-2.453-5.619c-1.635-1.686-3.804-2.529-6.507-2.529
				c-2.755,0-5.247,0.907-7.474,2.723s-3.906,4.268-5.039,7.357H335.444z"/>
			<path fill="#1EABE2" d="M382.639,177.445h12.219l-1.506,6.295h-5.176l-6.378,26.767c-1.286,5.381-2.676,9.494-4.169,12.339
				c-1.494,2.844-3.735,5.153-6.723,6.931c-2.988,1.775-6.787,2.664-11.396,2.664c-7.186,0-12.685-2.088-16.496-6.261l3.746-5.247
				c3.732,3.938,8.111,5.907,13.131,5.907c4.042,0,7.195-1.255,9.462-3.765s4.079-6.701,5.438-12.571
				c-3.764,3.604-7.927,5.407-12.488,5.407c-4.485,0-8.152-1.545-11-4.635s-4.271-7.092-4.271-12.01
				c0-5.665,2.072-10.814,6.221-15.448c4.148-4.636,9.053-6.952,14.713-6.952c5.557,0,9.951,2.291,13.182,6.874L382.639,177.445z
				 M354.252,198.995c0,3.115,0.893,5.672,2.676,7.666c1.783,1.996,4.16,2.993,7.133,2.993c4.315,0,7.83-1.827,10.544-5.483
				s4.071-7.519,4.071-11.586c0-2.498-0.893-4.705-2.676-6.623s-4.213-2.878-7.287-2.878c-4.084,0-7.516,1.608-10.293,4.827
				C355.641,191.13,354.252,194.823,354.252,198.995z"/>
			<path fill="#1EABE2" d="M393.065,199.768c0-3.835,0.901-7.524,2.704-11.065c1.801-3.539,4.498-6.475,8.09-8.805
				c3.592-2.329,7.628-3.494,12.107-3.494c5.201,0,9.205,1.519,12.012,4.557c2.806,3.038,4.209,6.874,4.209,11.508
				c0,3.657-0.895,7.403-2.684,11.239c-1.79,3.837-4.538,6.829-8.246,8.979c-3.707,2.149-7.634,3.226-11.779,3.226
				c-4.789,0-8.722-1.422-11.797-4.268C394.604,208.8,393.065,204.841,393.065,199.768z M400.867,199.073
				c0,6.745,3.128,10.117,9.385,10.117c4.377,0,7.891-1.68,10.543-5.039s3.979-7.241,3.979-11.645c0-2.832-0.908-5.104-2.723-6.816
				c-1.816-1.712-4.217-2.568-7.203-2.568c-4.223,0-7.608,1.623-10.158,4.867C402.141,191.231,400.867,194.929,400.867,199.073z"/>
			<path fill="#1EABE2" d="M464.513,203.515l5.137,3.745c-4.326,5.768-9.81,8.651-16.452,8.651c-4.712,0-8.542-1.494-11.49-4.48
				s-4.422-6.654-4.422-11.006c0-6.103,2.047-11.631,6.141-16.588c4.094-4.955,8.947-7.434,14.561-7.434
				c4.325,0,7.775,1.403,10.35,4.209l0.772-3.167h6.179l-2.664,11.239h-6.18c-0.412-2.086-1.41-3.684-2.993-4.789
				c-1.583-1.107-3.366-1.66-5.349-1.66c-3.605,0-6.72,1.743-9.346,5.232c-2.627,3.488-3.939,7.537-3.939,12.146
				c0,3.115,0.811,5.634,2.433,7.551c1.622,1.919,3.939,2.876,6.952,2.876C458.037,210.04,461.475,207.864,464.513,203.515z"/>
			<path fill="#1EABE2" d="M479.807,208.534l5.561-24.794h-5.175l1.468-6.295h12.086l-6.974,31.089h5.445l-1.468,6.295h-16.544
				l1.468-6.295H479.807z M488.959,164.585c0-1.21,0.424-2.246,1.274-3.108c0.851-0.863,1.867-1.295,3.051-1.295
				c1.235,0,2.267,0.438,3.09,1.313c0.824,0.875,1.235,1.905,1.235,3.09c0,1.211-0.418,2.246-1.254,3.109
				c-0.838,0.863-1.861,1.293-3.071,1.293c-1.157,0-2.169-0.43-3.032-1.293C489.39,166.831,488.959,165.796,488.959,164.585z"/>
			<path fill="#1EABE2" d="M499.348,199.768c0-3.835,0.9-7.524,2.703-11.065c1.803-3.539,4.5-6.475,8.092-8.805
				c3.592-2.329,7.627-3.494,12.107-3.494c5.199,0,9.203,1.519,12.01,4.557s4.209,6.874,4.209,11.508
				c0,3.657-0.895,7.403-2.683,11.239c-1.79,3.837-4.538,6.829-8.245,8.979c-3.708,2.149-7.635,3.226-11.78,3.226
				c-4.788,0-8.722-1.422-11.798-4.268C500.887,208.8,499.348,204.841,499.348,199.768z M507.148,199.073
				c0,6.745,3.129,10.117,9.386,10.117c4.376,0,7.891-1.68,10.542-5.039c2.652-3.359,3.979-7.241,3.979-11.645
				c0-2.832-0.906-5.104-2.723-6.816c-1.814-1.712-4.216-2.568-7.202-2.568c-4.224,0-7.608,1.623-10.157,4.867
				C508.424,191.231,507.148,194.929,507.148,199.073z"/>
		</g>
	</g>
	<g>
		<path fill="#1EABE2" d="M-0.113,3.206c0-0.663,0.23-1.237,0.689-1.722C1.035,0.999,1.596,0.757,2.26,0.757h12.554
			c1.837,0,3.546,0.345,5.129,1.034c1.581,0.688,2.972,1.633,4.171,2.833c1.199,1.199,2.144,2.591,2.833,4.171
			c0.689,1.583,1.034,3.267,1.034,5.052c0,1.634-0.281,3.165-0.843,4.593c-0.562,1.429-1.327,2.717-2.296,3.865
			c-0.97,1.149-2.131,2.119-3.483,2.909c-1.353,0.793-2.794,1.315-4.325,1.57l11.635,18.907c0.153,0.257,0.293,0.536,0.421,0.843
			c0.127,0.306,0.192,0.639,0.192,0.995c0,0.409-0.192,0.869-0.574,1.378c-0.383,0.511-0.932,0.765-1.646,0.765
			c-0.459,0-0.88-0.127-1.263-0.382s-0.702-0.586-0.957-0.996l-13.09-21.357H4.633V47.3c0,0.664-0.229,1.224-0.689,1.683
			c-0.459,0.46-1.021,0.689-1.684,0.689c-0.664,0-1.226-0.229-1.685-0.689c-0.459-0.458-0.689-1.019-0.689-1.683V3.206z
			 M4.633,5.503v16.688h10.182c1.122,0,2.193-0.217,3.215-0.65c1.02-0.433,1.914-1.034,2.679-1.799
			c0.766-0.765,1.365-1.646,1.799-2.642c0.433-0.994,0.651-2.079,0.651-3.253c0-1.122-0.218-2.194-0.651-3.215
			c-0.434-1.02-1.033-1.914-1.799-2.679c-0.765-0.766-1.659-1.366-2.679-1.799c-1.021-0.433-2.093-0.65-3.215-0.65H4.633z"/>
		<path fill="#1EABE2" d="M35.56,33.444c0.255,1.633,0.791,3.151,1.607,4.554c0.816,1.404,1.824,2.616,3.023,3.636
			c1.199,1.022,2.565,1.826,4.096,2.413c1.531,0.586,3.139,0.879,4.823,0.879c1.888,0,3.648-0.345,5.282-1.033
			c1.633-0.689,3.087-1.647,4.364-2.872c0.459-0.458,1.02-0.689,1.684-0.689c0.663,0,1.225,0.23,1.684,0.689
			c0.459,0.46,0.689,1.021,0.689,1.684c0,0.664-0.229,1.226-0.689,1.684c-1.684,1.889-3.586,3.229-5.704,4.02
			c-2.118,0.792-4.554,1.186-7.31,1.186c-2.552,0-4.938-0.459-7.158-1.377c-2.22-0.918-4.172-2.194-5.855-3.828
			c-1.685-1.632-3.012-3.571-3.981-5.817c-0.97-2.246-1.455-4.695-1.455-7.349c0-2.552,0.471-4.938,1.416-7.158
			c0.944-2.22,2.245-4.159,3.904-5.818c1.658-1.658,3.623-2.985,5.894-3.981c2.271-0.995,4.733-1.542,7.388-1.645
			c2.398,0,4.708,0.485,6.928,1.454c2.22,0.97,4.172,2.297,5.856,3.981s3.036,3.636,4.057,5.857
			c1.021,2.219,1.532,4.605,1.532,7.157c0,0.766-0.256,1.353-0.766,1.76c-0.511,0.409-1.046,0.613-1.607,0.613H35.56z
			 M62.659,28.698c-0.307-1.581-0.869-3.062-1.685-4.44c-0.817-1.378-1.825-2.565-3.024-3.56c-1.2-0.996-2.552-1.786-4.057-2.374
			c-1.506-0.585-3.101-0.879-4.785-0.879s-3.28,0.294-4.784,0.879c-1.506,0.588-2.858,1.377-4.058,2.374
			c-1.199,0.995-2.194,2.182-2.985,3.56c-0.792,1.378-1.339,2.859-1.646,4.44H62.659z"/>
		<path fill="#1EABE2" d="M71.155,14.842c0-0.663,0.23-1.225,0.689-1.685c0.459-0.458,1.02-0.688,1.685-0.688
			c0.663,0,1.225,0.229,1.684,0.688c0.459,0.46,0.689,1.022,0.689,1.685v0.995c1.173-1.021,2.526-1.837,4.057-2.45
			c1.531-0.613,3.164-0.918,4.899-0.918c1.888,0,3.675,0.358,5.359,1.072c1.684,0.715,3.15,1.697,4.401,2.947
			c1.25,1.251,2.232,2.717,2.947,4.401s1.072,3.471,1.072,5.358V47.3c0,0.664-0.229,1.224-0.689,1.683
			c-0.459,0.46-1.021,0.689-1.685,0.689s-1.225-0.229-1.684-0.689c-0.459-0.458-0.689-1.019-0.689-1.683V26.248
			c0-1.225-0.242-2.385-0.727-3.483c-0.486-1.097-1.136-2.054-1.952-2.872c-0.817-0.815-1.774-1.454-2.871-1.914
			c-1.098-0.458-2.258-0.688-3.483-0.688s-2.374,0.229-3.445,0.688c-1.072,0.46-2.017,1.072-2.832,1.837
			c-0.817,0.766-1.455,1.672-1.914,2.718c-0.459,1.046-0.715,2.156-0.765,3.33V47.3c0,0.664-0.23,1.224-0.689,1.683
			c-0.459,0.46-1.021,0.689-1.684,0.689c-0.665,0-1.225-0.229-1.685-0.689c-0.459-0.458-0.689-1.019-0.689-1.683V14.842z"/>
		<path fill="#1EABE2" d="M103.766,14.918c0-0.663,0.23-1.224,0.689-1.684c0.459-0.459,1.02-0.689,1.684-0.689
			c0.663,0,1.225,0.229,1.684,0.689c0.459,0.46,0.689,1.021,0.689,1.684v20.975c0,1.226,0.241,2.386,0.727,3.482
			c0.484,1.099,1.135,2.055,1.952,2.871c0.815,0.817,1.772,1.455,2.87,1.914c1.097,0.459,2.258,0.688,3.483,0.688
			c1.225,0,2.374-0.229,3.445-0.688c1.071-0.459,2.002-1.072,2.794-1.837c0.791-0.766,1.428-1.671,1.914-2.718
			c0.485-1.044,0.752-2.154,0.804-3.329V14.918c0-0.663,0.229-1.224,0.688-1.684c0.459-0.459,1.021-0.689,1.684-0.689
			c0.663,0,1.225,0.229,1.684,0.689c0.459,0.46,0.689,1.021,0.689,1.684V47.3c0,0.664-0.23,1.224-0.689,1.683
			c-0.459,0.46-1.021,0.689-1.684,0.689c-0.664,0-1.225-0.229-1.684-0.689c-0.459-0.458-0.688-1.019-0.688-1.683v-0.996
			c-1.175,1.022-2.526,1.837-4.058,2.45c-1.531,0.613-3.165,0.918-4.899,0.918c-1.888,0-3.674-0.356-5.358-1.071
			c-1.684-0.715-3.152-1.697-4.401-2.947c-1.251-1.25-2.233-2.718-2.947-4.401c-0.715-1.685-1.072-3.471-1.072-5.359V14.918z"/>
		<path fill="#1EABE2" d="M139.745,33.444c0.255,1.633,0.791,3.151,1.607,4.554c0.816,1.404,1.824,2.616,3.024,3.636
			c1.199,1.022,2.564,1.826,4.095,2.413c1.531,0.586,3.139,0.879,4.823,0.879c1.888,0,3.648-0.345,5.282-1.033
			c1.633-0.689,3.087-1.647,4.363-2.872c0.46-0.458,1.021-0.689,1.685-0.689c0.663,0,1.225,0.23,1.684,0.689
			c0.459,0.46,0.689,1.021,0.689,1.684c0,0.664-0.229,1.226-0.689,1.684c-1.684,1.889-3.586,3.229-5.703,4.02
			c-2.118,0.792-4.554,1.186-7.311,1.186c-2.552,0-4.938-0.459-7.157-1.377c-2.22-0.918-4.172-2.194-5.856-3.828
			c-1.685-1.632-3.012-3.571-3.98-5.817c-0.97-2.246-1.455-4.695-1.455-7.349c0-2.552,0.471-4.938,1.417-7.158
			c0.944-2.22,2.245-4.159,3.904-5.818c1.658-1.658,3.623-2.985,5.895-3.981c2.27-0.995,4.733-1.542,7.387-1.645
			c2.398,0,4.708,0.485,6.928,1.454c2.219,0.97,4.172,2.297,5.856,3.981s3.035,3.636,4.057,5.857
			c1.021,2.219,1.531,4.605,1.531,7.157c0,0.766-0.256,1.353-0.766,1.76c-0.51,0.409-1.046,0.613-1.607,0.613H139.745z
			 M166.844,28.698c-0.306-1.581-0.869-3.062-1.684-4.44c-0.817-1.378-1.825-2.565-3.023-3.56c-1.2-0.996-2.553-1.786-4.057-2.374
			c-1.506-0.585-3.101-0.879-4.785-0.879s-3.28,0.294-4.784,0.879c-1.506,0.588-2.858,1.377-4.057,2.374
			c-1.2,0.995-2.195,2.182-2.986,3.56c-0.792,1.378-1.339,2.859-1.646,4.44H166.844z"/>
		<path fill="#1EABE2" d="M196.316,13.924c0.153-0.408,0.433-0.739,0.842-0.996c0.408-0.254,0.842-0.383,1.301-0.383
			c0.714,0,1.289,0.243,1.723,0.727c0.433,0.485,0.65,1.009,0.65,1.57c0,0.306-0.077,0.612-0.229,0.918
			c-0.052,0.104-0.243,0.625-0.574,1.57c-0.333,0.945-0.945,2.616-1.837,5.014c-0.894,2.399-2.118,5.652-3.674,9.76
			c-1.558,4.109-3.56,9.327-6.009,15.655c-0.205,0.562-0.498,1.021-0.881,1.377c-0.382,0.357-0.932,0.535-1.646,0.535
			c-0.715,0-1.289-0.216-1.723-0.65c-0.434-0.432-0.727-0.854-0.88-1.262c-2.144-5.868-3.956-10.833-5.435-14.89
			c-1.481-4.057-2.679-7.322-3.598-9.798c-0.918-2.475-1.583-4.274-1.99-5.396c-0.409-1.122-0.612-1.709-0.612-1.761
			c-0.153-0.306-0.229-0.662-0.229-1.071c0-0.663,0.191-1.212,0.574-1.646c0.382-0.433,0.93-0.651,1.646-0.651
			c0.561,0,1.045,0.129,1.455,0.383c0.408,0.256,0.689,0.587,0.842,0.996l9.952,27.175L196.316,13.924z"/>
		<path fill="#1EABE2" d="M232.907,42.706c-1.684,1.888-3.712,3.51-6.086,4.861c-2.373,1.354-4.938,2.029-7.693,2.029
			c-2.553,0-4.938-0.459-7.158-1.377c-2.22-0.918-4.172-2.194-5.856-3.828c-1.685-1.632-3.012-3.571-3.981-5.817
			c-0.97-2.246-1.454-4.695-1.454-7.349c0-2.552,0.471-4.962,1.416-7.234c0.944-2.271,2.245-4.249,3.904-5.933
			c1.658-1.684,3.623-3.011,5.894-3.981c2.271-0.969,4.733-1.454,7.387-1.454c2.45,0,4.784,0.498,7.004,1.493
			c2.22,0.995,4.172,2.334,5.856,4.018s3.024,3.649,4.019,5.895c0.996,2.246,1.494,4.644,1.494,7.196v16.151
			c0,0.664-0.23,1.226-0.689,1.685c-0.459,0.459-1.021,0.688-1.684,0.688c-0.664,0-1.225-0.229-1.684-0.688
			c-0.459-0.459-0.689-1.021-0.689-1.685V42.706z M232.907,31.224c0-1.888-0.358-3.674-1.072-5.358
			c-0.715-1.684-1.697-3.15-2.947-4.402c-1.251-1.25-2.717-2.231-4.401-2.947c-1.684-0.713-3.471-1.071-5.358-1.071
			c-1.889,0-3.663,0.357-5.32,1.071c-1.659,0.716-3.114,1.698-4.363,2.947c-1.251,1.252-2.233,2.718-2.947,4.402
			c-0.716,1.684-1.072,3.471-1.072,5.358c0,1.888,0.356,3.662,1.072,5.32c0.714,1.66,1.696,3.113,2.947,4.363
			c1.25,1.252,2.704,2.234,4.363,2.949c1.657,0.714,3.431,1.071,5.32,1.071c1.837,0,3.571-0.345,5.206-1.033
			c1.632-0.689,3.074-1.647,4.325-2.872c1.25-1.224,2.245-2.666,2.985-4.325C232.383,35.04,232.804,33.214,232.907,31.224z"/>
		<path fill="#1EABE2" d="M261.995,3.13c0-0.663,0.23-1.226,0.689-1.685c0.459-0.459,1.021-0.688,1.684-0.688
			c0.663,0,1.225,0.229,1.684,0.688c0.459,0.459,0.689,1.022,0.689,1.685v9.339h5.105c0.67,0,1.236,0.229,1.701,0.688
			c0.464,0.46,0.695,1.022,0.695,1.685c0,0.663-0.231,1.225-0.695,1.684c-0.465,0.459-1.031,0.688-1.701,0.688h-5.105V47.3
			c0,0.664-0.226,1.224-0.678,1.683c-0.452,0.46-1.003,0.689-1.657,0.689c-0.653,0-1.206-0.229-1.658-0.689
			c-0.452-0.458-0.677-1.019-0.677-1.683V17.215h-5.105c-0.67,0-1.237-0.229-1.701-0.688c-0.464-0.459-0.696-1.021-0.696-1.684
			c0-0.663,0.229-1.225,0.689-1.685c0.459-0.458,1.02-0.688,1.684-0.688h5.052V3.13z"/>
		<path fill="#1EABE2" d="M276.693,14.918c0-0.663,0.229-1.224,0.688-1.684c0.46-0.459,1.021-0.689,1.685-0.689
			c0.662,0,1.225,0.229,1.684,0.689c0.46,0.46,0.689,1.021,0.689,1.684v20.975c0,1.226,0.242,2.386,0.727,3.482
			c0.484,1.099,1.136,2.055,1.953,2.871c0.815,0.817,1.771,1.455,2.87,1.914c1.097,0.459,2.259,0.688,3.483,0.688
			s2.373-0.229,3.444-0.688c1.071-0.459,2.003-1.072,2.794-1.837c0.791-0.766,1.429-1.671,1.914-2.718
			c0.484-1.044,0.752-2.154,0.804-3.329V14.918c0-0.663,0.229-1.224,0.688-1.684c0.46-0.459,1.021-0.689,1.684-0.689
			c0.664,0,1.226,0.229,1.686,0.689c0.459,0.46,0.688,1.021,0.688,1.684V47.3c0,0.664-0.229,1.224-0.688,1.683
			c-0.46,0.46-1.021,0.689-1.686,0.689c-0.662,0-1.224-0.229-1.684-0.689c-0.459-0.458-0.688-1.019-0.688-1.683v-0.996
			c-1.175,1.022-2.526,1.837-4.058,2.45c-1.531,0.613-3.164,0.918-4.898,0.918c-1.889,0-3.675-0.356-5.358-1.071
			c-1.685-0.715-3.152-1.697-4.401-2.947c-1.252-1.25-2.233-2.718-2.947-4.401c-0.716-1.685-1.072-3.471-1.072-5.359V14.918z"/>
		<path fill="#1EABE2" d="M338.852,29.54c0-1.633-0.104-2.845-0.307-3.636c-0.205-0.791-0.843-1.188-1.914-1.188
			c-0.868,0-1.378,0.371-1.531,1.111c-0.152,0.74-0.256,1.774-0.307,3.1v14.774c0,1.736-0.562,3.165-1.684,4.288
			c-1.123,1.123-2.629,1.683-4.516,1.683c-1.635-0.102-3.037-0.65-4.211-1.645c-1.175-0.996-1.76-2.437-1.76-4.326V6.88
			c0-1.734,0.535-3.162,1.607-4.286c1.07-1.122,2.499-1.684,4.286-1.684c1.837,0,3.342,0.562,4.517,1.684
			c1.173,1.124,1.76,2.552,1.76,4.286v7.273c0.256-0.307,0.587-0.562,0.996-0.766c0.355-0.203,0.79-0.394,1.301-0.574
			c0.51-0.179,1.122-0.269,1.838-0.269c2.756,0,4.924,0.332,6.506,0.996c1.582,0.663,2.795,1.697,3.637,3.1
			c0.842,1.405,1.378,3.177,1.607,5.321s0.345,4.669,0.345,7.579v14.161c0,1.736-0.55,3.165-1.646,4.288
			c-1.099,1.123-2.539,1.683-4.326,1.683c-1.735,0-3.203-0.51-4.401-1.531c-1.199-1.02-1.798-2.499-1.798-4.44V29.54z"/>
		<path fill="#1EABE2" d="M372.686,12.623c2.449,0,4.785,0.498,7.005,1.493c2.22,0.995,4.172,2.334,5.856,4.018
			c1.684,1.684,3.023,3.662,4.019,5.933c0.995,2.271,1.493,4.658,1.493,7.158c0,2.5-0.486,4.861-1.455,7.08
			c-0.971,2.22-2.284,4.172-3.942,5.856c-1.659,1.684-3.61,3.012-5.856,3.98c-2.246,0.97-4.67,1.455-7.271,1.455
			c-2.553,0-4.938-0.459-7.158-1.377c-2.219-0.918-4.172-2.194-5.855-3.828c-1.684-1.632-3.012-3.571-3.98-5.817
			c-0.971-2.246-1.455-4.695-1.455-7.349c0-2.552,0.472-4.938,1.416-7.158c0.944-2.22,2.246-4.159,3.904-5.818
			c1.658-1.658,3.623-2.985,5.895-3.981C367.569,13.272,370.032,12.725,372.686,12.623z M366.256,31.147
			c0,1.736,0.612,3.215,1.838,4.44c1.225,1.224,2.703,1.837,4.439,1.837c1.785,0,3.291-0.613,4.516-1.837
			c1.225-1.226,1.838-2.705,1.838-4.44c0-1.786-0.613-3.292-1.838-4.516c-1.225-1.225-2.73-1.837-4.516-1.837
			c-1.736,0-3.215,0.612-4.439,1.837C366.868,27.855,366.256,29.361,366.256,31.147z"/>
		<path fill="#1EABE2" d="M396.953,56.409c0-1.124,0.279-2.029,0.842-2.718c0.561-0.688,1.263-1.187,2.104-1.493
			c0.843-0.306,1.747-0.409,2.718-0.306c0.969,0.101,1.887,0.331,2.756,0.688c0.867,0.408,1.964,0.714,3.291,0.919
			c1.327,0.203,2.5,0.307,3.521,0.307c1.327,0,2.438-0.218,3.33-0.651s1.62-0.995,2.182-1.684c0.561-0.688,1.008-1.442,1.34-2.258
			c0.332-0.815,0.625-1.632,0.881-2.449c-0.459,0.459-1.047,0.868-1.761,1.225c-0.716,0.357-1.481,0.65-2.298,0.88
			c-0.816,0.23-1.595,0.409-2.334,0.536c-0.74,0.128-1.34,0.191-1.799,0.191c-2.553,0-4.926-0.459-7.119-1.377
			c-2.195-0.918-4.096-2.194-5.703-3.828c-1.607-1.632-2.883-3.571-3.827-5.817c-0.944-2.246-1.416-4.695-1.416-7.349
			c0-2.552,0.421-4.938,1.263-7.158c0.842-2.22,2.041-4.159,3.598-5.818c1.557-1.658,3.432-2.985,5.627-3.981
			c2.193-0.995,4.618-1.542,7.271-1.645c1.734,0,3.178,0.152,4.326,0.458c1.148,0.307,2.078,0.664,2.793,1.072
			c0.816,0.459,1.429,0.945,1.838,1.455c0.255-0.612,0.815-1.199,1.685-1.761c0.866-0.561,1.733-0.842,2.603-0.842
			c1.837,0,3.303,0.574,4.4,1.722c1.098,1.148,1.646,2.591,1.646,4.325v25.262c0,6.89-1.634,12.005-4.899,15.348
			c-3.267,3.343-7.834,5.014-13.702,5.014c-1.377,0-2.782-0.077-4.211-0.229c-1.429-0.153-2.793-0.435-4.095-0.841
			c-1.302-0.41-2.488-0.933-3.56-1.57c-1.071-0.639-1.914-1.467-2.525-2.488v-0.076C397.207,58.655,396.953,57.633,396.953,56.409z
			 M405.832,31.147c0,1.736,0.613,3.215,1.838,4.44c1.225,1.224,2.704,1.837,4.439,1.837c1.786,0,3.292-0.613,4.517-1.837
			c1.225-1.226,1.837-2.705,1.837-4.44c0-1.786-0.612-3.292-1.837-4.516c-1.225-1.225-2.73-1.837-4.517-1.837
			c-1.735,0-3.215,0.612-4.439,1.837C406.445,27.855,405.832,29.361,405.832,31.147z"/>
		<path fill="#1EABE2" d="M470.9,43.701c0,0.869-0.204,1.66-0.612,2.373c-0.409,0.716-0.931,1.339-1.569,1.875
			s-1.377,0.957-2.22,1.263c-0.842,0.307-1.696,0.459-2.564,0.459c-0.919,0-1.851-0.344-2.794-1.033
			c-0.945-0.689-1.492-1.442-1.646-2.258c-0.102,0.204-0.344,0.485-0.727,0.842c-0.383,0.358-0.906,0.715-1.569,1.072
			c-0.663,0.358-1.454,0.664-2.373,0.918c-0.919,0.256-1.965,0.383-3.138,0.383c-2.553,0-4.9-0.459-7.043-1.377
			c-2.145-0.918-4.008-2.194-5.589-3.828c-1.583-1.632-2.82-3.571-3.712-5.817c-0.895-2.246-1.34-4.695-1.34-7.349
			c0-2.552,0.471-4.938,1.416-7.158c0.943-2.22,2.245-4.159,3.904-5.818c1.657-1.658,3.623-2.985,5.894-3.981
			c2.271-0.995,4.733-1.542,7.388-1.645c2.449,0,4.784,0.498,7.004,1.493c2.221,0.995,4.172,2.334,5.855,4.018
			c1.686,1.684,3.024,3.662,4.02,5.933c0.995,2.271,1.493,4.658,1.493,7.158c0,0.152,0,0.344,0,0.573c0,0.23-0.013,0.755-0.038,1.57
			c-0.027,0.817-0.039,2.029-0.039,3.636C470.9,38.611,470.9,40.844,470.9,43.701z M446.175,31.147c0,1.736,0.612,3.215,1.837,4.44
			c1.225,1.224,2.705,1.837,4.44,1.837c1.786,0,3.292-0.6,4.517-1.799c1.225-1.199,1.837-2.667,1.837-4.401
			c0.05-0.867-0.103-1.697-0.46-2.488c-0.357-0.791-0.83-1.48-1.416-2.067c-0.586-0.586-1.275-1.045-2.066-1.377
			c-0.791-0.331-1.596-0.498-2.411-0.498c-1.735,0-3.216,0.612-4.44,1.837C446.787,27.855,446.175,29.361,446.175,31.147z"/>
		<path fill="#1EABE2" d="M487.206,29.54v14.161c0,1.736-0.548,3.165-1.646,4.288c-1.099,1.123-2.539,1.683-4.325,1.683
			c-1.735,0-3.203-0.51-4.401-1.531c-1.2-1.02-1.799-2.499-1.799-4.44V18.44c0-1.734,0.445-3.164,1.339-4.287
			c0.893-1.122,2.231-1.684,4.02-1.684c0.714,0,1.326,0.142,1.837,0.421c0.51,0.281,0.918,0.574,1.225,0.88
			c0.356,0.357,0.664,0.766,0.919,1.225c0.356-0.459,0.815-0.868,1.378-1.225c0.51-0.307,1.199-0.6,2.066-0.88
			c0.867-0.279,1.99-0.421,3.368-0.421c1.734,0.051,3.188,0.664,4.364,1.837c1.173,1.174,1.76,2.629,1.76,4.363
			c0,1.736-0.587,3.165-1.76,4.287c-1.176,1.124-2.654,1.684-4.441,1.684c-0.918,0-1.785,0.459-2.602,1.379
			C487.691,26.938,487.257,28.111,487.206,29.54z"/>
		<path fill="#1EABE2" d="M507.799,54.955c0,1.735-0.588,3.163-1.762,4.287c-1.175,1.122-2.654,1.684-4.439,1.684
			c-1.736,0-3.165-0.562-4.287-1.684c-1.123-1.124-1.684-2.552-1.684-4.287v-8.42c0-1.735,0.535-3.164,1.607-4.288
			c1.071-1.122,2.5-1.683,4.286-1.683c1.838,0,3.342,0.561,4.517,1.683c1.174,1.124,1.762,2.553,1.762,4.288V54.955z"/>
	</g>
	<g>
		<g>
			<path fill="#1EABE2" d="M65.978,119.121c0-5.104,0.969-9.928,2.91-14.473c1.938-4.542,4.594-8.499,7.963-11.868
				s7.298-6.023,11.792-7.963c4.491-1.938,9.289-2.911,14.396-2.911c5.104,0,9.902,0.973,14.396,2.911
				c4.491,1.94,8.423,4.594,11.792,7.963c3.37,3.369,6.049,7.327,8.041,11.868c1.991,4.545,2.986,9.369,2.986,14.473
				c0,5.106-0.972,9.904-2.91,14.396c-1.941,4.494-4.594,8.424-7.964,11.793c-3.369,3.369-7.327,6.025-11.869,7.963
				c-4.544,1.941-9.368,2.91-14.472,2.91c-5.106,0-9.904-0.969-14.396-2.91c-4.494-1.938-8.423-4.594-11.792-7.963
				s-6.025-7.299-7.963-11.793C66.947,129.025,65.978,124.228,65.978,119.121z M70.879,119.121c0,4.392,0.842,8.552,2.526,12.481
				c1.685,3.932,3.982,7.352,6.892,10.262c2.909,2.909,6.329,5.206,10.261,6.891c3.929,1.685,8.09,2.527,12.481,2.527
				c4.389,0,8.55-0.843,12.481-2.527c3.929-1.685,7.351-3.981,10.261-6.891c2.91-2.91,5.23-6.33,6.968-10.262
				c1.735-3.93,2.603-8.09,2.603-12.481c0-4.389-0.868-8.549-2.603-12.481c-1.738-3.929-4.059-7.351-6.968-10.262
				c-2.91-2.91-6.332-5.23-10.261-6.967c-3.931-1.735-8.093-2.604-12.481-2.604c-4.391,0-8.552,0.869-12.481,2.604
				c-3.932,1.737-7.352,4.057-10.261,6.967c-2.91,2.911-5.208,6.333-6.892,10.262C71.721,110.572,70.879,114.732,70.879,119.121z"/>
			<path fill="#1EABE2" d="M149.902,77.925c0-2.551,0.483-5.001,1.455-7.352c0.969-2.348,2.297-4.415,3.981-6.202
				c1.685-1.786,3.676-3.189,5.973-4.211c2.298-1.02,4.771-1.532,7.428-1.532c0.713,0,1.301,0.255,1.761,0.765
				c0.459,0.513,0.689,1.072,0.689,1.685c0,1.634-0.818,2.451-2.45,2.451c-4.085,0-7.428,1.378-10.031,4.134
				c-2.604,2.757-3.906,6.179-3.906,10.262v3.981h13.63c1.632,0,2.45,0.819,2.45,2.451c0,0.612-0.229,1.174-0.689,1.684
				c-0.459,0.512-1.048,0.766-1.761,0.766h-13.63v66.925c0,1.634-0.818,2.45-2.45,2.45c-1.634,0-2.451-0.816-2.451-2.45V86.807
				h-9.036c-0.716,0-1.301-0.254-1.761-0.766c-0.459-0.51-0.689-1.072-0.689-1.684c0-1.631,0.816-2.451,2.451-2.451h9.036V77.925z"
				/>
			<path fill="#1EABE2" d="M175.631,67.204c0-1.122,0.382-2.091,1.148-2.909c0.766-0.816,1.708-1.225,2.833-1.225
				c1.123,0,2.092,0.409,2.91,1.225c0.816,0.818,1.225,1.788,1.225,2.909c0,1.126-0.409,2.068-1.225,2.834
				c-0.818,0.765-1.787,1.148-2.91,1.148c-1.125,0-2.067-0.383-2.833-1.148C176.013,69.271,175.631,68.33,175.631,67.204z
				 M177.622,84.51c0-1.631,0.816-2.451,2.45-2.451c1.632,0,2.45,0.819,2.45,2.451v69.375c0,1.636-0.818,2.45-2.45,2.45
				c-1.634,0-2.45-0.814-2.45-2.45V84.51z"/>
			<path fill="#1EABE2" d="M227.09,151.282c4.288,0,8.32-0.816,12.099-2.451c3.776-1.632,7.145-3.775,10.107-6.432
				c0.51-0.51,1.123-0.766,1.838-0.766c1.632,0,2.45,0.818,2.45,2.45c0,0.513-0.206,1.072-0.612,1.685
				c-2.962,3.574-6.739,6.203-11.333,7.887c-4.594,1.686-9.445,2.527-14.549,2.527c-5.106,0-9.904-0.969-14.396-2.91
				c-4.494-1.938-8.423-4.594-11.792-7.963s-6.025-7.299-7.964-11.793c-1.94-4.491-2.91-9.289-2.91-14.396
				c0-5.104,0.969-9.928,2.91-14.473c1.938-4.542,4.595-8.499,7.964-11.868s7.298-6.023,11.792-7.963
				c4.491-1.938,9.289-2.911,14.396-2.911c5.001,0,9.725,0.945,14.166,2.833c4.441,1.89,8.347,4.467,11.716,7.734
				c0.51,0.513,0.766,1.125,0.766,1.838c0,1.634-0.819,2.45-2.451,2.45c-0.818,0-1.431-0.204-1.838-0.613
				c-2.962-2.96-6.331-5.257-10.107-6.892c-3.779-1.632-7.864-2.451-12.252-2.451c-4.391,0-8.552,0.869-12.481,2.604
				c-3.932,1.737-7.351,4.057-10.261,6.967c-2.91,2.911-5.207,6.333-6.892,10.262c-1.685,3.932-2.526,8.092-2.526,12.481
				c0,4.392,0.842,8.552,2.526,12.481c1.685,3.932,3.982,7.352,6.892,10.262c2.91,2.909,6.329,5.206,10.261,6.891
				C218.538,150.439,222.699,151.282,227.09,151.282z"/>
			<path fill="#1EABE2" d="M259.097,67.204c0-1.122,0.383-2.091,1.149-2.909c0.766-0.816,1.709-1.225,2.833-1.225
				c1.122,0,2.091,0.409,2.91,1.225c0.816,0.818,1.225,1.788,1.225,2.909c0,1.126-0.409,2.068-1.225,2.834
				c-0.818,0.765-1.788,1.148-2.91,1.148c-1.125,0-2.068-0.383-2.833-1.148C259.48,69.271,259.097,68.33,259.097,67.204z
				 M261.088,84.51c0-1.631,0.816-2.451,2.451-2.451c1.632,0,2.45,0.819,2.45,2.451v69.375c0,1.636-0.818,2.45-2.45,2.45
				c-1.634,0-2.451-0.814-2.451-2.45V84.51z"/>
			<path fill="#1EABE2" d="M276.863,152.813c0.101,0,0.152,0.053,0.152,0.152h-0.152h-0.152
				C276.711,152.866,276.76,152.813,276.863,152.813z M277.016,152.354v0.307v0.305V152.354z M330.771,153.732
				c0,0.715-0.257,1.302-0.767,1.761c-0.512,0.459-1.071,0.689-1.685,0.689c-1.635,0-2.45-0.816-2.45-2.45v-45.025
				c0-3.062-0.562-5.92-1.685-8.576c-1.125-2.654-2.68-4.952-4.671-6.893c-1.991-1.938-4.288-3.469-6.892-4.593
				c-2.604-1.123-5.387-1.685-8.347-1.685c-3.062,0-5.896,0.562-8.499,1.685c-2.604,1.124-4.877,2.629-6.815,4.517
				c-1.94,1.891-3.499,4.111-4.671,6.662c-1.175,2.553-1.814,5.259-1.914,8.117v45.791c0,1.634-0.818,2.45-2.451,2.45
				c-0.612,0-1.175-0.23-1.684-0.689c-0.513-0.459-0.767-1.046-0.767-1.761V84.357c0-0.713,0.254-1.301,0.767-1.761
				c0.509-0.459,1.071-0.689,1.684-0.689c1.633,0,2.451,0.819,2.451,2.451v9.342c3.162-4.594,6.711-7.708,10.644-9.342
				c3.929-1.631,7.681-2.451,11.256-2.451c3.676,0,7.121,0.716,10.337,2.144c3.217,1.431,6.023,3.346,8.424,5.744
				c2.397,2.399,4.288,5.232,5.666,8.499c1.379,3.269,2.068,6.739,2.068,10.414V153.732z"/>
			<path fill="#1EABE2" d="M338.277,119.121c0-5.104,0.969-9.928,2.909-14.473c1.938-4.542,4.595-8.499,7.964-11.868
				s7.299-6.023,11.793-7.963c4.49-1.938,9.289-2.911,14.395-2.911c5.002,0,9.775,0.973,14.319,2.911
				c4.542,1.94,8.499,4.57,11.869,7.887c3.369,3.318,6.05,7.223,8.04,11.715c1.991,4.494,2.986,9.292,2.986,14.395v34.918
				c0,1.634-0.818,2.45-2.449,2.45c-1.635,0-2.451-0.816-2.451-2.45v-16.847c-3.269,5.617-7.734,10.237-13.4,13.859
				c-5.666,3.626-11.972,5.438-18.914,5.438c-5.105,0-9.904-0.969-14.395-2.91c-4.494-1.938-8.424-4.594-11.793-7.963
				s-6.025-7.299-7.964-11.793C339.246,129.025,338.277,124.228,338.277,119.121z M343.178,119.121
				c0,4.392,0.842,8.552,2.526,12.481c1.685,3.932,3.982,7.352,6.892,10.262c2.91,2.909,6.33,5.206,10.262,6.891
				c3.929,1.685,8.09,2.527,12.48,2.527c4.389,0,8.551-0.843,12.482-2.527c3.929-1.685,7.351-3.981,10.26-6.891
				c2.91-2.91,5.231-6.33,6.969-10.262c1.734-3.93,2.604-8.09,2.604-12.481c0-4.389-0.869-8.549-2.604-12.481
				c-1.737-3.929-4.059-7.351-6.969-10.262c-2.909-2.91-6.331-5.23-10.26-6.967c-3.932-1.735-8.094-2.604-12.482-2.604
				c-4.391,0-8.552,0.869-12.48,2.604c-3.932,1.737-7.352,4.057-10.262,6.967c-2.909,2.911-5.207,6.333-6.892,10.262
				C344.02,110.572,343.178,114.732,343.178,119.121z"/>
		</g>
	</g>
</g>
</svg>
